<?xml version="1.0" encoding="UTF-8" standalone="no"?>
<!DOCTYPE svg PUBLIC "-//W3C//DTD SVG 1.1//EN" "http://www.w3.org/Graphics/SVG/1.1/DTD/svg11.dtd">
<svg xmlns="http://www.w3.org/2000/svg" version="1.1" viewBox="0 0 518 451">
<path fill="#000000" d="
  M 452.40 339.04
  A 39.95 39.95 0.0 0 1 412.45 378.99
  L 92.55 378.99
  A 39.95 39.95 0.0 0 1 52.60 339.04
  L 52.60 126.40
  A 39.95 39.95 0.0 0 1 92.55 86.45
  L 412.45 86.45
  A 39.95 39.95 0.0 0 1 452.40 126.40
  L 452.40 339.04
  Z
  M 426.00 126.33
  A 13.33 13.33 0.0 0 0 412.67 113.00
  L 92.27 113.00
  A 13.33 13.33 0.0 0 0 78.94 126.33
  L 78.94 339.41
  A 13.33 13.33 0.0 0 0 92.27 352.74
  L 412.67 352.74
  A 13.33 13.33 0.0 0 0 426.00 339.41
  L 426.00 126.33
  Z"
/>
<path fill="#000000" d="
  M 252.46 217.11
  A 1.00 0.99 41.7 0 0 253.39 217.06
  Q 316.00 179.33 378.47 142.00
  C 392.03 133.89 405.89 149.81 396.02 161.36
  Q 394.57 163.05 390.76 165.35
  Q 327.00 203.74 263.01 241.75
  C 253.16 247.61 249.87 246.38 240.94 241.06
  Q 177.09 203.05 113.44 164.71
  C 96.73 154.65 110.88 132.31 127.26 142.19
  Q 188.60 179.17 250.12 215.84
  Q 251.52 216.68 252.46 217.11
  Z"
/>
</svg>
