<?xml version="1.0" encoding="UTF-8" standalone="no"?>
<!DOCTYPE svg PUBLIC "-//W3C//DTD SVG 1.1//EN" "http://www.w3.org/Graphics/SVG/1.1/DTD/svg11.dtd">
<svg xmlns="http://www.w3.org/2000/svg" version="1.1" viewBox="0 0 500 500">
<path fill="#ffbe4a" d="
  M 368.11 109.03
  L 363.36 114.14
  A 1.00 1.00 0.0 0 1 362.55 114.45
  L 343.22 112.99
  A 1.00 0.99 11.6 0 1 342.35 111.68
  Q 343.79 107.34 338.81 106.95
  A 1.01 1.01 0.0 0 0 338.05 107.22
  L 333.11 111.87
  A 1.01 0.98 -64.1 0 1 332.36 112.14
  L 316.30 111.00
  A 1.00 1.00 0.0 0 1 315.42 109.68
  Q 316.96 105.14 311.77 104.91
  A 1.00 1.00 0.0 0 0 311.03 105.19
  L 306.20 109.88
  A 1.01 0.98 -64.1 0 1 305.42 110.16
  L 278.08 108.04
  A 0.97 0.97 0.0 0 0 277.30 108.33
  L 272.46 113.16
  A 1.00 1.00 0.0 0 0 272.89 114.83
  Q 296.61 121.69 319.95 128.50
  C 324.54 129.84 328.19 133.52 331.75 136.54
  Q 331.40 136.75 330.97 136.58
  A 0.52 0.51 9.4 0 0 330.27 137.08
  L 330.28 137.44
  Q 330.29 137.61 329.58 137.16
  L 328.33 136.38
  A 1.01 0.99 -44.9 0 0 327.24 136.39
  Q 325.49 137.56 324.77 135.55
  A 1.02 1.01 87.6 0 0 324.10 134.93
  L 321.41 134.17
  A 1.02 0.98 42.8 0 0 320.84 134.18
  C 316.25 135.61 312.26 134.94 308.09 134.96
  C 244.60 135.19 177.45 134.89 130.31 135.05
  C 129.09 135.05 125.93 137.31 124.94 135.44
  A 1.03 0.99 -9.6 0 0 124.18 134.92
  C 120.32 134.42 116.00 136.95 113.46 135.00
  C 167.39 40.53 295.78 26.36 368.11 109.03
  Z"
/>
<path fill="#0d274c" d="
  M 382.71 129.00
  C 381.04 130.08 380.01 131.25 380.19 133.42
  Q 380.95 142.38 381.56 151.42
  A 1.01 1.00 75.9 0 0 382.97 152.27
  Q 385.09 151.32 386.85 153.15
  Q 388.91 155.30 386.69 157.45
  L 382.72 161.29
  A 1.00 0.99 -24.6 0 0 382.42 162.09
  L 383.64 178.33
  A 1.01 1.00 78.5 0 0 384.96 179.21
  Q 389.29 177.74 389.60 182.89
  A 1.01 0.98 -25.9 0 1 389.33 183.64
  L 384.74 188.45
  A 0.99 0.97 64.8 0 0 384.47 189.22
  L 386.60 216.12
  Q 384.48 219.80 381.33 222.24
  A 1.00 0.99 62.4 0 1 379.77 221.75
  L 377.26 213.84
  Q 371.64 193.63 365.65 173.71
  Q 364.89 171.19 363.22 169.16
  Q 358.54 163.47 353.72 157.64
  A 1.00 0.99 50.0 0 0 352.30 157.51
  L 313.71 190.67
  A 0.99 0.98 -24.2 0 0 313.37 191.55
  L 315.00 205.17
  A 0.99 0.99 0.0 0 0 315.79 206.03
  Q 321.12 207.13 326.25 209.71
  L 316.64 208.88
  A 1.00 1.00 0.0 0 0 315.56 209.98
  L 316.49 218.86
  A 1.00 0.97 65.4 0 1 316.20 219.67
  L 313.32 222.56
  A 1.01 1.00 -39.6 0 1 311.78 222.42
  L 309.29 218.75
  L 308.50 217.46
  L 303.01 208.72
  A 1.02 1.02 0.0 0 0 302.21 208.25
  Q 240.20 205.60 178.24 208.99
  Q 141.93 210.98 103.49 217.38
  Q 101.78 217.66 101.49 219.18
  L 95.31 219.00
  A 1.01 0.99 89.0 0 1 94.35 218.06
  Q 93.25 201.34 95.28 185.51
  Q 95.54 183.50 96.27 182.39
  Q 105.50 182.17 114.48 184.56
  C 119.81 185.98 125.51 184.68 130.69 183.37
  C 135.67 182.12 139.50 182.41 144.22 183.25
  C 149.15 184.14 152.44 187.70 157.46 188.87
  Q 161.53 189.82 164.39 193.16
  A 1.00 0.98 64.7 0 0 165.32 193.50
  Q 191.25 189.08 212.26 190.04
  C 217.99 190.30 221.34 194.24 226.88 195.22
  C 238.62 197.30 251.77 200.50 263.19 200.07
  C 271.92 199.75 279.57 197.23 288.79 198.85
  A 1.00 1.00 0.0 0 0 289.90 198.21
  L 290.92 195.48
  A 1.01 1.01 0.0 0 0 290.51 194.27
  L 272.30 183.07
  A 1.00 0.99 -51.7 0 1 272.12 181.52
  L 275.14 178.48
  A 1.01 1.01 0.0 0 1 275.96 178.19
  L 303.04 181.36
  A 1.01 1.00 -65.8 0 0 303.91 181.02
  L 317.54 165.25
  L 337.11 142.27
  A 1.01 1.00 -50.4 0 0 336.98 140.85
  L 331.75 136.54
  C 328.19 133.52 324.54 129.84 319.95 128.50
  Q 296.61 121.69 272.89 114.83
  A 1.00 1.00 0.0 0 1 272.46 113.16
  L 277.30 108.33
  A 0.97 0.97 0.0 0 1 278.08 108.04
  L 305.42 110.16
  A 1.01 0.98 -64.1 0 0 306.20 109.88
  L 311.03 105.19
  A 1.00 1.00 0.0 0 1 311.77 104.91
  Q 316.96 105.14 315.42 109.68
  A 1.00 1.00 0.0 0 0 316.30 111.00
  L 332.36 112.14
  A 1.01 0.98 -64.1 0 0 333.11 111.87
  L 338.05 107.22
  A 1.01 1.01 0.0 0 1 338.81 106.95
  Q 343.79 107.34 342.35 111.68
  A 1.00 0.99 11.6 0 0 343.22 112.99
  L 362.55 114.45
  A 1.00 1.00 0.0 0 0 363.36 114.14
  L 368.11 109.03
  C 374.68 102.34 383.72 90.75 391.08 87.18
  Q 398.59 83.54 407.77 86.23
  A 1.00 0.99 1.1 0 1 408.46 86.94
  Q 412.17 101.73 401.17 111.42
  Q 396.57 115.48 382.71 129.00
  Z"
/>
<path fill="#fe7954" d="
  M 382.71 129.00
  Q 394.82 148.93 400.79 171.50
  Q 400.62 174.30 401.96 176.75
  Q 406.84 197.49 405.21 218.75
  L 386.60 216.12
  L 384.47 189.22
  A 0.99 0.97 64.8 0 1 384.74 188.45
  L 389.33 183.64
  A 1.01 0.98 -25.9 0 0 389.60 182.89
  Q 389.29 177.74 384.96 179.21
  A 1.01 1.00 78.5 0 1 383.64 178.33
  L 382.42 162.09
  A 1.00 0.99 -24.6 0 1 382.72 161.29
  L 386.69 157.45
  Q 388.91 155.30 386.85 153.15
  Q 385.09 151.32 382.97 152.27
  A 1.01 1.00 75.9 0 1 381.56 151.42
  Q 380.95 142.38 380.19 133.42
  C 380.01 131.25 381.04 130.08 382.71 129.00
  Z"
/>
<path fill="#ffa14e" d="
  M 331.75 136.54
  L 336.98 140.85
  A 1.01 1.00 -50.4 0 1 337.11 142.27
  L 317.54 165.25
  L 312.99 162.54
  A 1.06 1.01 4.8 0 1 312.58 162.08
  Q 311.78 160.25 309.41 160.86
  A 1.08 0.98 -72.6 0 0 308.95 161.13
  C 307.90 162.19 305.83 159.91 304.09 160.24
  C 297.92 161.42 290.13 160.49 283.65 160.85
  C 281.25 160.98 278.51 160.30 275.85 160.44
  Q 271.18 160.67 271.10 160.67
  C 265.85 160.67 260.25 161.06 255.37 161.05
  C 216.39 160.90 177.40 160.94 138.44 160.87
  Q 121.63 160.83 104.84 161.42
  A 0.67 0.65 -23.8 0 1 104.36 161.24
  L 104.15 161.03
  A 0.21 0.21 0.0 0 1 104.16 160.72
  C 105.04 159.94 103.20 160.04 102.46 159.75
  Q 106.84 146.88 113.46 135.00
  C 116.00 136.95 120.32 134.42 124.18 134.92
  A 1.03 0.99 -9.6 0 1 124.94 135.44
  C 125.93 137.31 129.09 135.05 130.31 135.05
  C 177.45 134.89 244.60 135.19 308.09 134.96
  C 312.26 134.94 316.25 135.61 320.84 134.18
  A 1.02 0.98 42.8 0 1 321.41 134.17
  L 324.10 134.93
  A 1.02 1.01 87.6 0 1 324.77 135.55
  Q 325.49 137.56 327.24 136.39
  A 1.01 0.99 -44.9 0 1 328.33 136.38
  L 329.58 137.16
  Q 330.29 137.61 330.28 137.44
  L 330.27 137.08
  A 0.52 0.51 9.4 0 1 330.97 136.58
  Q 331.40 136.75 331.75 136.54
  Z"
/>
<path fill="#fe7954" d="
  M 377.26 213.84
  Q 368.49 213.76 360.00 212.21
  Q 347.55 208.89 336.81 209.94
  Q 330.28 210.58 326.25 209.71
  Q 321.12 207.13 315.79 206.03
  A 0.99 0.99 0.0 0 1 315.00 205.17
  L 313.37 191.55
  A 0.99 0.98 -24.2 0 1 313.71 190.67
  L 352.30 157.51
  A 1.00 0.99 50.0 0 1 353.72 157.64
  Q 358.54 163.47 363.22 169.16
  Q 364.89 171.19 365.65 173.71
  Q 371.64 193.63 377.26 213.84
  Z"
/>
<path fill="#ff8852" d="
  M 102.46 159.75
  C 103.20 160.04 105.04 159.94 104.16 160.72
  A 0.21 0.21 0.0 0 0 104.15 161.03
  L 104.36 161.24
  A 0.67 0.65 -23.8 0 0 104.84 161.42
  Q 121.63 160.83 138.44 160.87
  C 177.40 160.94 216.39 160.90 255.37 161.05
  C 260.25 161.06 265.85 160.67 271.10 160.67
  Q 271.18 160.67 275.85 160.44
  C 278.51 160.30 281.25 160.98 283.65 160.85
  C 290.13 160.49 297.92 161.42 304.09 160.24
  C 305.83 159.91 307.90 162.19 308.95 161.13
  A 1.08 0.98 -72.6 0 1 309.41 160.86
  Q 311.78 160.25 312.58 162.08
  A 1.06 1.01 4.8 0 0 312.99 162.54
  L 317.54 165.25
  L 303.91 181.02
  A 1.01 1.00 -65.8 0 1 303.04 181.36
  L 275.96 178.19
  A 1.01 1.01 0.0 0 0 275.14 178.48
  L 272.12 181.52
  A 1.00 0.99 -51.7 0 0 272.30 183.07
  L 290.51 194.27
  A 1.01 1.01 0.0 0 1 290.92 195.48
  L 289.90 198.21
  A 1.00 1.00 0.0 0 1 288.79 198.85
  C 279.57 197.23 271.92 199.75 263.19 200.07
  C 251.77 200.50 238.62 197.30 226.88 195.22
  C 221.34 194.24 217.99 190.30 212.26 190.04
  Q 191.25 189.08 165.32 193.50
  A 1.00 0.98 64.7 0 1 164.39 193.16
  Q 161.53 189.82 157.46 188.87
  C 152.44 187.70 149.15 184.14 144.22 183.25
  C 139.50 182.41 135.67 182.12 130.69 183.37
  C 125.51 184.68 119.81 185.98 114.48 184.56
  Q 105.50 182.17 96.27 182.39
  Q 98.70 170.72 102.46 159.75
  Z"
/>
<path fill="#4a9ae7" d="
  M 400.79 171.50
  L 401.96 176.75
  Q 400.62 174.30 400.79 171.50
  Z"
/>
<path fill="#4a9ae7" d="
  M 308.50 217.46
  C 299.08 218.49 288.30 217.14 278.75 216.71
  L 279.37 215.95
  Q 283.13 211.43 278.65 215.24
  Q 242.70 245.86 202.84 270.97
  L 152.53 269.75
  Q 145.87 269.58 152.38 268.17
  Q 160.94 266.30 169.57 264.77
  C 169.76 264.73 170.08 264.81 170.26 264.64
  Q 170.68 264.25 170.11 264.28
  L 105.71 267.00
  Q 102.22 259.49 100.04 251.50
  L 98.30 244.48
  A 1.01 1.00 -11.3 0 1 99.13 243.25
  Q 116.10 240.68 132.96 237.57
  Q 134.58 237.27 133.21 236.98
  C 125.35 235.36 117.45 233.30 109.49 232.25
  Q 109.25 232.22 109.01 232.18
  Q 104.01 231.28 109.07 230.91
  Q 156.17 227.42 203.25 224.27
  Q 204.41 224.19 206.71 223.25
  Q 207.22 224.09 208.01 224.03
  Q 233.89 222.08 259.80 220.59
  A 0.19 0.14 -12.0 0 0 259.98 220.39
  C 259.83 220.05 212.89 219.76 208.37 219.73
  C 207.61 219.73 206.86 220.15 206.46 220.75
  C 205.46 220.39 204.56 220.01 203.47 220.00
  Q 152.49 219.34 101.49 219.18
  Q 101.78 217.66 103.49 217.38
  Q 141.93 210.98 178.24 208.99
  Q 240.20 205.60 302.21 208.25
  A 1.02 1.02 0.0 0 1 303.01 208.72
  L 308.50 217.46
  Z"
/>
<path fill="#4a9ae7" d="
  M 326.25 209.71
  Q 330.28 210.58 336.81 209.94
  Q 347.55 208.89 360.00 212.21
  L 332.55 213.38
  A 0.27 0.26 12.9 0 0 332.34 213.51
  Q 332.24 213.68 332.45 213.71
  Q 350.88 216.41 369.36 218.79
  C 369.60 218.82 372.86 219.59 369.25 219.71
  Q 349.45 220.39 329.69 221.71
  Q 328.02 221.82 326.66 221.93
  Q 320.67 222.40 326.57 223.51
  L 330.08 224.17
  Q 330.59 224.26 330.21 224.62
  C 329.30 225.46 298.73 225.79 298.76 226.64
  A 0.33 0.33 0.0 0 0 299.03 226.95
  Q 330.92 233.21 362.82 239.40
  Q 365.69 239.96 368.63 240.20
  A 0.26 0.25 -9.1 0 1 368.85 240.35
  Q 369.01 240.68 368.50 240.66
  Q 314.24 239.10 260.00 237.17
  Q 261.37 234.99 262.96 234.31
  L 294.74 232.69
  A 0.43 0.41 9.3 0 0 295.09 232.45
  Q 295.31 232.00 294.50 231.95
  Q 277.76 230.92 267.00 229.71
  L 273.98 222.48
  Q 290.92 221.54 307.81 219.88
  Q 309.01 219.77 309.29 218.75
  L 311.78 222.42
  A 1.01 1.00 -39.6 0 0 313.32 222.56
  L 316.20 219.67
  A 1.00 0.97 65.4 0 0 316.49 218.86
  L 315.56 209.98
  A 1.00 1.00 0.0 0 1 316.64 208.88
  L 326.25 209.71
  Z"
/>
<path fill="#0d274c" d="
  M 278.75 216.71
  L 273.98 222.48
  L 267.00 229.71
  Q 264.73 231.39 262.96 234.31
  Q 261.37 234.99 260.00 237.17
  L 241.65 255.50
  Q 237.43 258.69 232.91 264.02
  Q 229.00 266.15 225.47 270.93
  Q 222.98 271.82 220.82 274.53
  Q 198.49 293.27 174.45 309.83
  Q 168.95 312.29 163.53 316.28
  L 146.50 324.21
  C 132.77 328.30 118.99 332.83 105.35 325.05
  C 79.20 310.15 92.63 272.46 100.04 251.50
  Q 102.22 259.49 105.71 267.00
  L 111.73 279.63
  L 121.50 296.46
  Q 118.86 302.73 125.46 302.25
  C 136.48 302.60 148.24 298.49 158.33 294.36
  Q 176.66 286.88 193.37 276.24
  Q 198.16 274.27 202.84 270.97
  Q 242.70 245.86 278.65 215.24
  Q 283.13 211.43 279.37 215.95
  L 278.75 216.71
  Z"
/>
<path fill="#6dc1f7" d="
  M 360.00 212.21
  Q 368.49 213.76 377.26 213.84
  L 379.77 221.75
  A 1.00 0.99 62.4 0 0 381.33 222.24
  Q 384.48 219.80 386.60 216.12
  L 405.21 218.75
  L 404.64 225.55
  A 1.00 1.00 0.0 0 1 403.64 226.47
  L 369.00 226.29
  Q 363.76 225.62 358.50 226.21
  C 357.82 226.33 356.68 226.17 356.16 226.36
  Q 355.35 226.65 356.23 226.86
  Q 378.92 232.18 401.87 237.21
  A 1.01 1.00 -77.0 0 1 402.63 238.43
  L 399.40 251.39
  A 1.01 1.00 -83.2 0 1 398.44 252.15
  Q 351.08 252.55 303.76 252.53
  Q 302.50 252.53 301.29 252.27
  Q 288.51 251.96 275.75 251.70
  Q 268.04 251.54 270.33 251.67
  Q 274.71 251.92 270.34 252.19
  L 269.46 252.25
  Q 245.77 252.09 268.96 254.00
  L 270.51 254.77
  Q 279.62 255.29 294.75 257.02
  Q 336.27 261.77 377.76 266.84
  Q 382.91 267.47 377.81 268.42
  Q 367.90 270.27 358.09 272.53
  C 357.05 272.77 357.81 273.36 358.33 273.41
  Q 366.91 274.18 375.50 274.98
  Q 375.84 275.01 376.15 275.12
  Q 377.35 275.55 376.07 275.63
  L 349.31 277.21
  A 0.42 0.41 -82.4 0 0 348.95 277.49
  Q 348.75 278.08 349.76 278.24
  Q 366.86 280.95 383.95 283.89
  A 1.00 0.99 19.1 0 1 384.66 285.35
  L 382.39 289.48
  A 1.03 1.00 12.6 0 1 381.55 290.00
  L 310.75 292.96
  Q 310.99 292.65 311.32 292.49
  Q 311.98 292.16 311.24 292.09
  L 308.49 291.83
  A 1.01 0.99 2.9 0 1 307.58 290.84
  Q 307.58 290.38 307.76 289.93
  C 308.84 287.24 308.32 284.05 307.30 281.42
  C 306.96 280.53 306.03 280.05 308.00 279.79
  L 333.84 278.12
  Q 334.64 278.07 333.97 277.64
  Q 333.82 277.54 333.50 277.52
  Q 315.47 276.44 290.69 273.99
  C 289.91 273.91 290.48 273.60 290.71 273.58
  Q 297.28 272.86 303.78 271.63
  Q 308.27 270.78 303.76 270.05
  Q 272.83 265.08 241.52 260.37
  Q 239.99 260.14 240.51 259.07
  A 0.80 0.80 0.0 0 1 241.30 258.62
  Q 269.24 261.26 297.17 263.99
  C 302.76 264.54 311.37 265.91 318.48 266.26
  C 318.90 266.29 322.06 265.60 319.30 265.37
  Q 311.71 264.74 297.31 262.95
  Q 262.66 258.63 241.65 255.50
  L 260.00 237.17
  Q 314.24 239.10 368.50 240.66
  Q 369.01 240.68 368.85 240.35
  A 0.26 0.25 -9.1 0 0 368.63 240.20
  Q 365.69 239.96 362.82 239.40
  Q 330.92 233.21 299.03 226.95
  A 0.33 0.33 0.0 0 1 298.76 226.64
  C 298.73 225.79 329.30 225.46 330.21 224.62
  Q 330.59 224.26 330.08 224.17
  L 326.57 223.51
  Q 320.67 222.40 326.66 221.93
  Q 328.02 221.82 329.69 221.71
  Q 349.45 220.39 369.25 219.71
  C 372.86 219.59 369.60 218.82 369.36 218.79
  Q 350.88 216.41 332.45 213.71
  Q 332.24 213.68 332.34 213.51
  A 0.27 0.26 12.9 0 1 332.55 213.38
  L 360.00 212.21
  Z"
/>
<path fill="#5aacee" d="
  M 278.75 216.71
  C 288.30 217.14 299.08 218.49 308.50 217.46
  L 309.29 218.75
  Q 309.01 219.77 307.81 219.88
  Q 290.92 221.54 273.98 222.48
  L 278.75 216.71
  Z"
/>
<path fill="#ffffff" d="
  M 206.71 223.25
  Q 207.51 221.91 206.46 220.75
  C 206.86 220.15 207.61 219.73 208.37 219.73
  C 212.89 219.76 259.83 220.05 259.98 220.39
  A 0.19 0.14 -12.0 0 1 259.80 220.59
  Q 233.89 222.08 208.01 224.03
  Q 207.22 224.09 206.71 223.25
  Z"
/>
<path fill="#4a9ae7" d="
  M 369.00 226.29
  L 358.50 226.21
  Q 363.76 225.62 369.00 226.29
  Z"
/>
<path fill="#5aacee" d="
  M 267.00 229.71
  Q 277.76 230.92 294.50 231.95
  Q 295.31 232.00 295.09 232.45
  A 0.43 0.41 9.3 0 1 294.74 232.69
  L 262.96 234.31
  Q 264.73 231.39 267.00 229.71
  Z"
/>
<path fill="#4a9ae7" d="
  M 301.29 252.27
  L 271.17 252.31
  A 1.00 1.00 0.0 0 0 270.20 253.55
  L 270.51 254.77
  L 268.96 254.00
  L 269.46 252.25
  L 270.34 252.19
  Q 274.71 251.92 270.33 251.67
  Q 268.04 251.54 275.75 251.70
  Q 288.51 251.96 301.29 252.27
  Z"
/>
<path fill="#ffffff" d="
  M 269.46 252.25
  L 268.96 254.00
  Q 245.77 252.09 269.46 252.25
  Z"
/>
<path fill="#4a9ae7" d="
  M 241.65 255.50
  Q 262.66 258.63 297.31 262.95
  Q 311.71 264.74 319.30 265.37
  C 322.06 265.60 318.90 266.29 318.48 266.26
  C 311.37 265.91 302.76 264.54 297.17 263.99
  Q 269.24 261.26 241.30 258.62
  A 0.80 0.80 0.0 0 0 240.51 259.07
  Q 239.99 260.14 241.52 260.37
  Q 272.83 265.08 303.76 270.05
  Q 308.27 270.78 303.78 271.63
  Q 297.28 272.86 290.71 273.58
  C 290.48 273.60 289.91 273.91 290.69 273.99
  Q 315.47 276.44 333.50 277.52
  Q 333.82 277.54 333.97 277.64
  Q 334.64 278.07 333.84 278.12
  L 308.00 279.79
  Q 265.71 281.75 223.49 284.84
  C 221.08 285.02 222.14 284.02 223.12 283.93
  Q 244.02 282.11 264.93 279.87
  A 1.02 1.01 -82.7 0 0 265.76 279.22
  Q 266.52 277.12 268.49 276.76
  Q 273.14 275.92 276.25 273.05
  Q 280.34 273.05 284.33 271.76
  Q 286.70 270.99 284.22 270.76
  Q 283.14 270.66 282.00 270.96
  C 279.83 270.52 277.76 269.84 275.62 269.60
  Q 254.22 267.13 232.91 264.02
  Q 237.43 258.69 241.65 255.50
  Z"
/>
<path fill="#5aacee" d="
  M 232.91 264.02
  Q 254.22 267.13 275.62 269.60
  C 277.76 269.84 279.83 270.52 282.00 270.96
  C 280.52 271.28 279.46 272.03 277.93 272.02
  Q 251.73 271.68 225.47 270.93
  Q 229.00 266.15 232.91 264.02
  Z"
/>
<path fill="#ffffff" d="
  M 202.84 270.97
  Q 198.16 274.27 193.37 276.24
  Q 152.38 277.34 111.73 279.63
  L 105.71 267.00
  L 170.11 264.28
  Q 170.68 264.25 170.26 264.64
  C 170.08 264.81 169.76 264.73 169.57 264.77
  Q 160.94 266.30 152.38 268.17
  Q 145.87 269.58 152.53 269.75
  L 202.84 270.97
  Z"
/>
<path fill="#ffffff" d="
  M 225.47 270.93
  Q 251.73 271.68 277.93 272.02
  C 279.46 272.03 280.52 271.28 282.00 270.96
  Q 283.14 270.66 284.22 270.76
  Q 286.70 270.99 284.33 271.76
  Q 280.34 273.05 276.25 273.05
  L 220.82 274.53
  Q 222.98 271.82 225.47 270.93
  Z"
/>
<path fill="#5aacee" d="
  M 276.25 273.05
  Q 273.14 275.92 268.49 276.76
  Q 266.52 277.12 265.76 279.22
  A 1.02 1.01 -82.7 0 1 264.93 279.87
  Q 244.02 282.11 223.12 283.93
  C 222.14 284.02 221.08 285.02 223.49 284.84
  Q 265.71 281.75 308.00 279.79
  C 306.03 280.05 306.96 280.53 307.30 281.42
  C 308.32 284.05 308.84 287.24 307.76 289.93
  Q 307.58 290.38 307.58 290.84
  A 1.01 0.99 2.9 0 0 308.49 291.83
  L 311.24 292.09
  Q 311.98 292.16 311.32 292.49
  Q 310.99 292.65 310.75 292.96
  Q 288.87 293.76 267.00 294.69
  C 265.26 294.76 266.97 295.58 267.30 295.60
  Q 318.59 299.77 369.85 304.27
  A 1.01 1.01 0.0 0 1 370.76 305.41
  Q 370.63 306.31 369.85 306.91
  Q 369.21 307.41 367.87 307.51
  Q 324.87 310.70 281.83 313.53
  C 278.68 313.74 280.84 314.26 281.57 314.33
  Q 317.48 317.76 353.38 321.38
  Q 355.60 321.60 353.95 323.11
  Q 347.92 328.63 341.27 333.38
  A 0.99 0.98 -62.8 0 1 340.69 333.57
  L 283.76 333.36
  Q 281.19 333.35 283.73 333.77
  Q 284.09 333.83 284.46 333.88
  Q 307.77 336.57 330.86 338.73
  Q 333.29 338.95 331.20 340.21
  Q 308.26 354.00 282.29 359.63
  Q 272.66 361.71 262.51 362.49
  Q 209.66 366.52 164.75 337.80
  Q 162.41 336.31 165.16 335.96
  Q 177.39 334.44 189.82 332.68
  Q 190.96 332.52 190.50 331.91
  A 0.80 0.78 -16.6 0 0 189.91 331.60
  L 153.19 329.45
  A 1.01 0.94 63.7 0 1 152.61 329.23
  L 146.50 324.21
  L 163.53 316.28
  L 195.54 312.34
  Q 197.20 312.44 198.88 312.14
  Q 204.27 311.19 198.80 310.87
  Q 196.41 310.73 193.75 311.04
  Q 184.47 311.00 174.45 309.83
  Q 198.49 293.27 220.82 274.53
  L 276.25 273.05
  Z"
/>
<path fill="#4a9ae7" d="
  M 193.37 276.24
  Q 176.66 286.88 158.33 294.36
  C 148.24 298.49 136.48 302.60 125.46 302.25
  Q 124.57 298.61 121.50 296.46
  L 111.73 279.63
  Q 152.38 277.34 193.37 276.24
  Z"
/>
<path fill="#4a9ae7" d="
  M 195.54 312.34
  Q 197.53 311.34 193.75 311.04
  Q 196.41 310.73 198.80 310.87
  Q 204.27 311.19 198.88 312.14
  Q 197.20 312.44 195.54 312.34
  Z"
/>
<circle fill="#0d274c" cx="202.75" cy="387.05" r="3.76"/>
<path fill="#0d274c" d="
  M 171.21 392.43
  A 0.99 0.99 0.0 0 0 170.20 393.43
  L 170.28 414.65
  A 1.00 1.00 0.0 0 1 169.56 415.61
  Q 166.90 416.40 164.21 415.69
  A 1.00 0.99 7.9 0 1 163.47 414.72
  L 163.57 393.55
  A 1.00 1.00 0.0 0 0 162.59 392.54
  L 155.52 392.42
  A 0.99 0.99 0.0 0 1 154.54 391.49
  L 154.32 388.07
  A 1.00 1.00 0.0 0 1 155.32 387.00
  L 178.35 387.00
  A 1.01 1.00 82.5 0 1 179.32 387.75
  Q 179.84 389.76 179.30 391.79
  A 1.01 1.00 -82.2 0 1 178.32 392.54
  L 171.21 392.43
  Z"
/>
<path fill="#0d274c" d="
  M 246.79 401.70
  L 246.94 414.85
  A 1.00 1.00 0.0 0 1 245.88 415.86
  L 241.58 415.60
  A 1.00 0.99 -88.2 0 1 240.65 414.60
  L 240.64 388.29
  A 1.00 0.99 78.2 0 1 241.23 387.38
  Q 243.66 386.27 245.59 387.39
  Q 246.75 388.06 248.30 390.64
  Q 252.23 397.19 255.96 403.48
  A 1.00 1.00 0.0 0 0 257.68 403.49
  Q 261.86 396.50 265.96 389.48
  C 267.53 386.80 269.88 386.05 272.50 387.57
  A 1.00 0.99 15.3 0 1 273.00 388.43
  L 273.00 414.76
  A 1.00 1.00 0.0 0 1 272.00 415.76
  L 267.72 415.76
  A 1.01 1.00 0.6 0 1 266.72 414.75
  L 266.84 401.28
  Q 266.86 399.49 265.51 400.67
  Q 265.29 400.87 265.12 401.15
  Q 262.20 406.16 259.14 411.09
  C 258.05 412.85 255.78 413.65 254.57 411.68
  Q 251.40 406.51 248.28 401.28
  Q 246.76 398.74 246.79 401.70
  Z"
/>
<path fill="#0d274c" d="
  M 312.85 394.23
  L 316.21 394.31
  A 1.00 0.99 -7.2 0 1 317.14 395.03
  Q 318.64 400.06 313.02 398.87
  A 1.01 1.00 6.1 0 0 311.81 399.84
  C 311.79 402.85 310.26 412.70 316.16 410.82
  A 1.00 1.00 0.0 0 1 317.36 411.33
  L 318.63 413.88
  A 1.00 1.00 0.0 0 1 318.00 415.29
  C 305.55 418.74 304.97 410.27 305.56 401.33
  Q 305.73 398.77 303.07 398.88
  A 1.01 1.00 -6.8 0 1 302.05 398.08
  Q 301.70 396.41 302.35 394.84
  A 1.02 1.02 0.0 0 1 303.24 394.22
  Q 304.77 394.16 305.44 393.01
  A 0.98 0.98 0.0 0 0 305.52 392.17
  Q 305.10 391.01 305.27 389.85
  A 1.00 1.00 0.0 0 1 306.26 389.00
  L 310.81 389.00
  A 1.00 1.00 0.0 0 1 311.81 389.98
  L 311.88 393.25
  A 1.00 0.99 90.0 0 0 312.85 394.23
  Z"
/>
<path fill="#0d274c" d="
  M 218.84 395.11
  Q 219.92 394.90 220.89 394.37
  C 225.30 391.98 231.18 394.04 233.80 397.70
  C 240.65 407.28 230.61 420.56 219.57 414.64
  A 1.00 1.00 0.0 0 0 218.10 415.54
  L 218.25 422.86
  A 0.99 0.99 0.0 0 1 217.23 423.88
  L 212.98 423.79
  A 1.00 1.00 0.0 0 1 212.00 422.79
  L 212.00 394.73
  A 1.00 1.00 0.0 0 1 212.76 393.76
  Q 215.87 392.98 217.98 394.87
  A 1.02 1.01 -29.2 0 0 218.84 395.11
  Z
  M 224.1306 410.9032
  A 6.17 5.62 87.3 0 0 229.4538 404.4753
  A 6.17 5.62 87.3 0 0 223.5494 398.5768
  A 6.17 5.62 87.3 0 0 218.2262 405.0047
  A 6.17 5.62 87.3 0 0 224.1306 410.9032
  Z"
/>
<path fill="#0d274c" d="
  M 327.25 407.11
  L 327.23 407.62
  A 0.97 0.97 0.0 0 0 327.49 408.33
  Q 331.84 413.11 337.65 409.60
  A 0.98 0.97 40.3 0 1 338.55 409.53
  Q 340.30 410.25 341.54 412.12
  A 1.00 1.00 0.0 0 1 341.20 413.54
  C 323.39 423.69 311.56 400.58 327.29 394.25
  C 335.55 390.91 343.68 396.61 343.43 405.53
  A 1.00 1.00 0.0 0 1 342.43 406.50
  L 327.89 406.50
  A 0.64 0.63 0.9 0 0 327.25 407.11
  Z
  M 327.70 402.51
  L 336.60 402.90
  Q 339.03 403.01 337.38 401.22
  Q 331.86 395.27 326.99 400.85
  Q 325.63 402.42 327.70 402.51
  Z"
/>
<path fill="#0d274c" d="
  M 189.16 395.02
  A 1.01 1.01 0.0 0 0 190.27 394.97
  Q 196.41 390.45 195.80 398.33
  A 1.00 1.00 0.0 0 1 194.77 399.25
  C 186.13 398.96 188.55 409.36 188.44 414.75
  A 1.00 1.00 0.0 0 1 187.53 415.72
  L 183.09 416.11
  A 1.00 0.99 -2.6 0 1 182.00 415.12
  L 182.00 394.77
  A 1.00 1.00 0.0 0 1 182.82 393.79
  Q 186.13 393.19 189.16 395.02
  Z"
/>
<rect fill="#0d274c" x="-3.25" y="-11.21" transform="translate(202.75,404.76) rotate(0.1)" width="6.50" height="22.42" rx="1.38"/>
<path fill="#0d274c" d="
  M 291.56 414.74
  C 276.45 421.86 270.87 399.61 291.47 403.15
  Q 293.31 403.47 292.56 401.76
  C 290.61 397.34 285.22 398.08 281.75 399.76
  A 0.99 0.99 0.0 0 1 280.61 399.56
  Q 279.28 398.22 279.23 396.30
  A 1.00 0.99 -13.6 0 1 279.79 395.39
  C 286.10 392.23 296.57 391.97 298.62 400.43
  Q 299.67 404.79 298.77 414.95
  A 1.00 0.98 88.6 0 1 297.93 415.85
  Q 295.03 416.29 292.50 414.79
  A 1.02 1.01 47.7 0 0 291.56 414.74
  Z
  M 292.4553 408.2203
  A 4.26 2.64 -10.0 0 0 287.8016 406.3601
  A 4.26 2.64 -10.0 0 0 284.0647 409.6997
  A 4.26 2.64 -10.0 0 0 288.7184 411.5599
  A 4.26 2.64 -10.0 0 0 292.4553 408.2203
  Z"
/>
</svg>
