<?xml version="1.0" encoding="UTF-8" standalone="no"?>
<!DOCTYPE svg PUBLIC "-//W3C//DTD SVG 1.1//EN" "http://www.w3.org/Graphics/SVG/1.1/DTD/svg11.dtd">
<svg xmlns="http://www.w3.org/2000/svg" version="1.1" viewBox="0 0 512 512">
<path fill="#000000" d="
  M 496.00 383.72
  A 48.28 48.28 0.0 0 1 447.72 432.00
  L 64.28 432.00
  A 48.28 48.28 0.0 0 1 16.00 383.72
  L 16.00 128.28
  A 48.28 48.28 0.0 0 1 64.28 80.00
  L 447.72 80.00
  A 48.28 48.28 0.0 0 1 496.00 128.28
  L 496.00 383.72
  Z
  M 464.00 128.25
  A 16.25 16.25 0.0 0 0 447.75 112.00
  L 64.25 112.00
  A 16.25 16.25 0.0 0 0 48.00 128.25
  L 48.00 383.75
  A 16.25 16.25 0.0 0 0 64.25 400.00
  L 447.75 400.00
  A 16.25 16.25 0.0 0 0 464.00 383.75
  L 464.00 128.25
  Z"
/>
<path fill="#000000" d="
  M 255.50 237.05
  A 1.01 0.99 44.5 0 0 256.53 237.05
  Q 332.24 191.64 407.93 146.18
  C 423.03 137.11 439.55 156.23 428.52 169.94
  Q 426.69 172.23 421.75 175.20
  Q 346.46 220.44 271.11 265.59
  C 260.26 272.08 255.93 274.58 245.05 268.06
  Q 167.46 221.50 89.88 174.95
  Q 85.48 172.30 83.76 170.27
  C 76.96 162.22 79.65 150.07 89.02 145.53
  C 95.48 142.39 100.63 144.15 106.93 147.92
  Q 181.25 192.43 255.50 237.05
  Z"
/>
</svg>
