<?xml version="1.0" encoding="UTF-8" standalone="no"?>
<!DOCTYPE svg PUBLIC "-//W3C//DTD SVG 1.1//EN" "http://www.w3.org/Graphics/SVG/1.1/DTD/svg11.dtd">
<svg xmlns="http://www.w3.org/2000/svg" version="1.1" viewBox="0 0 359 410">
<g stroke-width="2.00" fill="none" stroke-linecap="butt">
<path stroke="#3c89e0" vector-effect="non-scaling-stroke" d="
  M 344.81 341.67
  L 333.13 338.34"
/>
<path stroke="#9ac8f5" vector-effect="non-scaling-stroke" d="
  M 333.13 338.34
  C 338.34 319.20 330.25 302.58 319.00 287.73
  C 309.20 274.80 298.85 262.13 293.00 246.29"
/>
<path stroke="#70b6dd" vector-effect="non-scaling-stroke" d="
  M 293.00 246.29
  C 309.56 246.20 335.28 244.41 348.20 232.56
  A 1.00 0.98 -23.9 0 0 348.52 231.75
  C 347.97 224.39 343.17 221.83 336.87 219.92
  C 331.69 218.36 321.48 224.65 317.53 227.68
  A 1.01 1.00 39.4 0 1 316.46 227.78
  C 310.74 224.85 295.93 221.43 295.19 231.88
  A 1.01 1.01 0.0 0 1 294.33 232.80
  Q 289.45 233.49 286.54 231.82"
/>
<path stroke="#9ac8f5" vector-effect="non-scaling-stroke" d="
  M 286.54 231.82
  C 277.17 213.58 264.95 200.36 251.00 185.71"
/>
<path stroke="#509f95" vector-effect="non-scaling-stroke" d="
  M 251.00 185.71
  L 274.92 172.67
  Q 276.72 171.69 274.83 170.88
  Q 262.94 165.77 250.57 165.08
  Q 244.40 164.73 239.61 166.26
  Q 234.01 168.05 229.70 171.59"
/>
<path stroke="#9ac8f5" vector-effect="non-scaling-stroke" d="
  M 229.70 171.59
  Q 218.25 163.88 204.71 160.55
  A 0.41 0.40 -72.3 0 0 204.23 160.80
  Q 204.16 160.99 204.21 161.25"
/>
<path stroke="#509f95" vector-effect="non-scaling-stroke" d="
  M 204.21 161.25
  L 198.88 133.76
  Q 198.48 131.70 197.41 133.50
  Q 190.58 144.96 186.57 157.37"
/>
<path stroke="#9ac8f5" vector-effect="non-scaling-stroke" d="
  M 186.57 157.37
  Q 177.76 156.31 172.06 157.03
  Q 163.43 158.12 154.75 158.71"
/>
<path stroke="#3b5b76" vector-effect="non-scaling-stroke" d="
  M 154.75 158.71
  Q 154.96 157.85 154.67 157.11
  A 1.02 1.01 71.2 0 0 153.45 156.51
  Q 145.79 158.75 142.29 166.00"
/>
<path stroke="#9ac8f5" vector-effect="non-scaling-stroke" d="
  M 142.29 166.00
  Q 138.84 164.52 135.71 166.25"
/>
<path stroke="#3b5b76" vector-effect="non-scaling-stroke" d="
  M 135.71 166.25
  Q 130.40 163.22 124.48 161.69
  A 0.80 0.80 0.0 0 0 123.65 161.98
  C 123.00 162.84 123.81 163.18 124.53 163.35
  Q 128.84 164.35 132.54 166.75"
/>
<path stroke="#9ac8f5" vector-effect="non-scaling-stroke" d="
  M 132.54 166.75
  Q 131.44 168.60 130.20 169.22
  C 102.50 182.97 74.87 204.95 57.46 231.25"
/>
<path stroke="#70b6dd" vector-effect="non-scaling-stroke" d="
  M 57.46 231.25
  Q 51.13 228.08 44.46 230.60
  A 1.05 1.04 -83.9 0 0 43.98 230.99
  Q 38.60 239.14 37.26 248.82
  A 1.04 1.02 80.7 0 1 36.73 249.57
  L 23.48 256.45
  A 1.02 1.01 85.7 0 0 22.98 257.04
  C 19.49 268.01 32.01 269.21 39.00 269.54"
/>
<path stroke="#9ac8f5" vector-effect="non-scaling-stroke" d="
  M 39.00 269.54
  Q 34.36 286.89 35.25 304.69"
/>
<path stroke="#3b5b76" vector-effect="non-scaling-stroke" d="
  M 91.90 185.63
  Q 93.09 186.97 93.61 185.26
  Q 95.81 178.04 100.51 172.03
  Q 102.18 169.89 105.65 168.13
  A 1.01 1.01 0.0 0 0 106.17 167.47
  C 106.42 166.38 104.81 166.73 104.26 167.03
  Q 98.16 170.38 95.22 176.78
  Q 94.01 179.40 92.78 181.98
  A 1.00 0.99 -61.3 0 1 91.35 182.40
  Q 82.44 176.79 70.54 175.27
  Q 69.64 175.16 69.79 175.98
  A 0.64 0.63 1.4 0 0 70.29 176.50
  Q 77.91 178.04 85.17 180.87
  Q 89.02 182.37 91.90 185.63"
/>
<path stroke="#74b2a0" vector-effect="non-scaling-stroke" d="
  M 204.21 161.25
  L 211.28 198.01"
/>
<path stroke="#7d823e" vector-effect="non-scaling-stroke" d="
  M 211.28 198.01
  Q 206.47 195.82 202.24 198.39
  A 1.04 0.97 88.0 0 0 201.85 198.84
  L 199.56 203.92
  A 0.99 0.98 43.4 0 0 199.59 204.81
  Q 201.21 207.79 204.07 209.17
  Q 205.35 209.79 203.94 209.95
  Q 201.20 210.25 198.96 212.25"
/>
<path stroke="#74b2a0" vector-effect="non-scaling-stroke" d="
  M 198.96 212.25
  Q 172.87 219.02 146.28 223.42
  Q 136.95 224.96 127.51 225.32
  Q 123.63 225.47 125.48 222.02
  C 131.13 211.48 143.13 202.60 153.35 196.88
  C 163.28 191.33 170.20 189.87 181.01 192.50
  Q 189.62 194.59 199.30 199.71
  Q 200.58 200.38 200.25 199.23
  A 0.99 0.97 10.8 0 0 199.89 198.71
  C 185.49 187.95 181.47 174.63 186.57 157.37"
/>
<path stroke="#5f6e80" vector-effect="non-scaling-stroke" d="
  M 154.75 158.71
  C 146.16 159.72 140.87 168.34 142.20 176.50
  C 142.50 178.36 141.42 177.06 141.29 176.55
  Q 139.48 169.41 132.54 166.75"
/>
<path stroke="#5f6e80" vector-effect="non-scaling-stroke" d="
  M 135.71 166.25
  L 139.69 169.47
  A 1.00 0.99 -61.2 0 0 141.26 169.01
  L 142.29 166.00"
/>
<path stroke="#c6ab9e" vector-effect="non-scaling-stroke" d="
  M 198.96 212.25
  L 196.46 215.50"
/>
<path stroke="#74b2a0" vector-effect="non-scaling-stroke" d="
  M 196.46 215.50
  Q 177.90 226.03 172.54 246.75"
/>
<path stroke="#deedff" vector-effect="non-scaling-stroke" d="
  M 172.54 246.75
  C 158.33 236.74 143.36 237.80 136.28 255.29
  Q 135.64 256.86 133.39 264.70
  A 1.01 1.00 -68.5 0 1 131.98 265.32
  Q 123.04 260.84 117.42 260.29
  Q 107.75 259.34 103.60 265.79
  Q 100.93 269.92 100.91 278.63
  Q 100.90 284.84 101.78 291.01
  Q 102.09 293.13 100.47 291.73
  Q 96.99 288.73 92.22 287.92
  C 84.94 286.68 81.41 295.26 80.41 301.01
  C 79.79 304.56 80.32 308.69 81.95 311.75
  Q 83.14 314.01 80.73 313.16
  C 72.16 310.15 61.57 312.28 61.55 323.50
  Q 61.54 332.56 62.04 337.50"
/>
<path stroke="#5f9cea" vector-effect="non-scaling-stroke" d="
  M 62.04 337.50
  L 42.92 343.45"
/>
<path stroke="#93c9e8" vector-effect="non-scaling-stroke" d="
  M 39.00 269.54
  C 56.11 267.99 72.83 263.97 90.10 258.68
  Q 98.79 256.03 107.05 252.32
  C 113.20 249.56 123.80 241.92 114.03 235.32
  Q 104.24 228.70 92.38 233.42
  Q 89.54 234.55 87.86 232.16
  L 83.95 226.56
  Q 82.28 224.17 79.52 224.26
  C 71.69 224.51 67.91 228.72 62.57 233.75
  A 1.02 1.01 -49.3 0 1 61.32 233.85
  L 57.46 231.25"
/>
<path stroke="#5f6e80" vector-effect="non-scaling-stroke" d="
  M 110.56 209.68
  A 0.99 0.99 0.0 0 1 108.89 210.06
  Q 102.94 203.80 94.86 200.69
  C 94.19 200.43 92.02 200.11 92.59 201.40
  A 0.83 0.81 86.2 0 0 93.07 201.83
  Q 102.21 204.93 108.50 212.26
  Q 109.21 213.09 109.62 215.39
  Q 110.17 218.51 110.87 215.42
  Q 111.12 214.33 111.42 212.93
  C 112.63 207.19 116.47 198.76 122.83 196.60
  A 1.02 1.00 2.8 0 0 123.41 196.08
  Q 124.27 194.25 122.31 194.81
  Q 117.95 196.06 114.64 201.15
  Q 111.99 205.23 110.56 209.68"
/>
<path stroke="#74b2a0" vector-effect="non-scaling-stroke" d="
  M 229.70 171.59
  Q 222.19 179.43 217.25 187.96"
/>
<path stroke="#c6ab9e" vector-effect="non-scaling-stroke" d="
  M 217.25 187.96
  Q 211.23 190.63 212.41 197.07
  C 212.53 197.70 212.14 199.05 211.28 198.01"
/>
<path stroke="#74b2a0" vector-effect="non-scaling-stroke" d="
  M 251.00 185.71
  L 223.79 200.00"
/>
<path stroke="#7d823e" vector-effect="non-scaling-stroke" d="
  M 223.79 200.00
  C 228.62 194.41 224.53 187.11 217.25 187.96"
/>
<path stroke="#93c9e8" vector-effect="non-scaling-stroke" d="
  M 286.54 231.82
  L 275.38 233.35"
/>
<path stroke="#74b2a0" vector-effect="non-scaling-stroke" d="
  M 275.38 233.35
  C 269.60 220.23 259.87 207.69 245.25 204.94
  Q 233.12 202.66 220.75 203.29"
/>
<path stroke="#c6ab9e" vector-effect="non-scaling-stroke" d="
  M 220.75 203.29
  Q 219.53 203.49 218.96 202.50"
/>
<path stroke="#74b2a0" vector-effect="non-scaling-stroke" d="
  M 218.96 202.50
  L 219.04 202.25"
/>
<path stroke="#c6ab9e" vector-effect="non-scaling-stroke" d="
  M 219.04 202.25
  L 223.79 200.00"
/>
<path stroke="#7d823e" vector-effect="non-scaling-stroke" d="
  M 219.04 202.25
  Q 217.98 200.75 216.07 201.24
  A 1.02 1.00 60.5 0 1 215.10 200.96
  L 213.17 198.95
  A 0.65 0.64 -19.0 0 0 212.75 198.75
  L 212.40 198.73
  Q 211.80 198.69 212.18 199.16
  Q 214.06 201.46 213.22 204.71
  Q 212.23 208.54 209.25 210.14
  A 1.01 0.99 51.3 0 0 209.08 211.78
  Q 214.09 216.08 210.96 222.75"
/>
<path stroke="#c6ab9e" vector-effect="non-scaling-stroke" d="
  M 210.96 222.75
  Q 207.16 225.86 202.70 226.60"
/>
<path stroke="#7d823e" vector-effect="non-scaling-stroke" d="
  M 202.70 226.60
  Q 194.41 223.66 196.46 215.50"
/>
<path stroke="#7d823e" vector-effect="non-scaling-stroke" d="
  M 218.96 202.50
  C 215.67 204.25 210.79 208.07 211.50 212.32
  Q 212.71 219.68 220.63 220.25
  A 1.04 1.01 -16.2 0 1 221.34 220.63
  L 224.77 224.97"
/>
<path stroke="#74b2a0" vector-effect="non-scaling-stroke" d="
  M 224.77 224.97
  Q 232.90 239.44 228.81 256.27
  Q 226.21 266.99 221.78 275.50
  Q 220.69 277.59 220.28 275.27
  L 210.96 222.75"
/>
<path stroke="#7d823e" vector-effect="non-scaling-stroke" d="
  M 220.75 203.29
  Q 221.37 203.39 221.43 203.95
  A 0.65 0.64 3.2 0 0 221.94 204.51
  C 228.86 205.92 227.85 211.06 227.12 216.42
  A 0.99 0.98 -75.5 0 0 227.74 217.48
  L 237.50 221.29"
/>
<path stroke="#b76d3e" vector-effect="non-scaling-stroke" d="
  M 237.50 221.29
  L 230.25 229.29"
/>
<path stroke="#c6ab9e" vector-effect="non-scaling-stroke" d="
  M 230.25 229.29
  Q 228.03 226.48 224.77 224.97"
/>
<path stroke="#4aa088" vector-effect="non-scaling-stroke" d="
  M 275.38 233.35
  L 274.96 234.75"
/>
<path stroke="#74b2a0" vector-effect="non-scaling-stroke" d="
  M 274.96 234.75
  L 243.03 223.41"
/>
<path stroke="#647440" vector-effect="non-scaling-stroke" d="
  M 243.03 223.41
  L 237.50 221.29"
/>
<path stroke="#74b2a0" vector-effect="non-scaling-stroke" d="
  M 202.70 226.60
  L 185.54 258.25"
/>
<path stroke="#95c4a0" vector-effect="non-scaling-stroke" d="
  M 185.54 258.25
  L 174.70 277.58
  A 1.00 1.00 0.0 0 1 173.06 277.73
  C 167.66 271.30 171.00 254.37 172.54 246.75"
/>
<path stroke="#93c9e8" vector-effect="non-scaling-stroke" d="
  M 293.00 246.29
  C 285.82 245.81 273.94 244.35 274.96 234.75"
/>
<path stroke="#ae9d9f" vector-effect="non-scaling-stroke" d="
  M 243.03 223.41
  L 254.00 231.71"
/>
<path stroke="#b76d3e" vector-effect="non-scaling-stroke" d="
  M 254.00 231.71
  Q 249.51 237.78 244.12 243.22"
/>
<path stroke="#ae9d9f" vector-effect="non-scaling-stroke" d="
  M 244.12 243.22
  L 230.25 229.29"
/>
<path stroke="#c6ab9e" vector-effect="non-scaling-stroke" d="
  M 244.12 243.22
  L 256.50 257.29"
/>
<path stroke="#ae9d9f" vector-effect="non-scaling-stroke" d="
  M 256.50 257.29
  L 264.16 267.74"
/>
<path stroke="#c6ab9e" vector-effect="non-scaling-stroke" d="
  M 264.16 267.74
  Q 269.90 277.16 270.43 288.63"
/>
<path stroke="#ae9d9f" vector-effect="non-scaling-stroke" d="
  M 270.43 288.63
  L 271.24 308.76"
/>
<path stroke="#c6ab9e" vector-effect="non-scaling-stroke" d="
  M 271.24 308.76
  L 270.48 319.85"
/>
<path stroke="#5f9cea" vector-effect="non-scaling-stroke" d="
  M 270.48 319.85
  L 257.83 316.87"
/>
<path stroke="#deedff" vector-effect="non-scaling-stroke" d="
  M 257.83 316.87
  Q 258.31 303.24 244.77 302.62
  Q 238.56 302.33 232.64 304.02
  A 1.00 1.00 0.0 0 1 231.39 303.30
  C 228.84 292.93 224.11 284.52 211.84 285.56
  Q 205.95 286.05 200.43 288.44
  Q 198.39 289.33 199.40 287.35
  Q 201.09 284.05 201.77 280.38
  C 204.35 266.59 197.60 261.71 185.54 258.25"
/>
<path stroke="#5f9cea" vector-effect="non-scaling-stroke" d="
  M 333.13 338.34
  L 306.14 329.13"
/>
<path stroke="#c6ab9e" vector-effect="non-scaling-stroke" d="
  M 306.14 329.13
  Q 305.25 317.18 302.61 306.96"
/>
<path stroke="#ae9d9f" vector-effect="non-scaling-stroke" d="
  M 302.61 306.96
  Q 299.02 290.98 292.42 276.47"
/>
<path stroke="#c6ab9e" vector-effect="non-scaling-stroke" d="
  M 292.42 276.47
  Q 287.20 263.70 277.79 253.50"
/>
<path stroke="#ae9d9f" vector-effect="non-scaling-stroke" d="
  M 277.79 253.50
  Q 272.11 246.19 264.79 240.50"
/>
<path stroke="#c6ab9e" vector-effect="non-scaling-stroke" d="
  M 264.79 240.50
  Q 259.76 235.66 254.00 231.71"
/>
<path stroke="#b76d3e" vector-effect="non-scaling-stroke" d="
  M 264.79 240.50
  Q 263.65 250.41 256.50 257.29"
/>
<path stroke="#80aeea" vector-effect="non-scaling-stroke" d="
  M 257.83 316.87
  Q 226.97 309.38 195.51 308.78"
/>
<path stroke="#f7df81" vector-effect="non-scaling-stroke" d="
  M 195.51 308.78
  C 163.33 285.41 124.54 291.23 103.58 326.06"
/>
<path stroke="#80aeea" vector-effect="non-scaling-stroke" d="
  M 103.58 326.06
  Q 101.96 326.39 100.26 326.87
  Q 81.17 332.27 62.04 337.50"
/>
<path stroke="#b76d3e" vector-effect="non-scaling-stroke" d="
  M 277.79 253.50
  Q 272.27 261.90 264.16 267.74"
/>
<path stroke="#b76d3e" vector-effect="non-scaling-stroke" d="
  M 292.42 276.47
  Q 284.17 287.29 270.43 288.63"
/>
<path stroke="#b76d3e" vector-effect="non-scaling-stroke" d="
  M 302.61 306.96
  Q 286.97 309.34 271.24 308.76"
/>
<path stroke="#788d6c" vector-effect="non-scaling-stroke" d="
  M 195.51 308.78
  Q 192.01 309.27 188.48 309.63
  C 170.24 311.48 152.63 315.18 134.71 318.85
  Q 119.06 322.05 103.58 326.06"
/>
<path stroke="#686c89" vector-effect="non-scaling-stroke" d="
  M 306.14 329.13
  L 306.05 331.48"
/>
<path stroke="#b76d3e" vector-effect="non-scaling-stroke" d="
  M 306.05 331.48
  Q 305.07 333.05 304.00 333.08
  Q 291.74 333.34 273.71 331.96
  C 272.13 331.84 270.00 333.21 270.21 330.50"
/>
<path stroke="#686c89" vector-effect="non-scaling-stroke" d="
  M 270.21 330.50
  C 271.04 327.31 270.29 323.17 270.48 319.85"
/>
<path stroke="#505e8a" vector-effect="non-scaling-stroke" d="
  M 270.21 330.50
  L 269.71 335.50"
/>
<path stroke="#80aeea" vector-effect="non-scaling-stroke" d="
  M 269.71 335.50
  Q 246.77 335.66 223.92 337.65
  C 219.43 338.04 213.58 339.27 208.29 339.50"
/>
<path stroke="#735577" vector-effect="non-scaling-stroke" d="
  M 208.29 339.50
  Q 208.52 330.24 199.84 328.10"
/>
<path stroke="#012e6b" vector-effect="non-scaling-stroke" d="
  M 199.84 328.10
  Q 200.84 325.67 197.74 325.29
  C 196.71 325.16 189.96 325.97 191.75 327.71"
/>
<path stroke="#735577" vector-effect="non-scaling-stroke" d="
  M 191.75 327.71
  L 188.50 327.46"
/>
<path stroke="#505e8a" vector-effect="non-scaling-stroke" d="
  M 188.50 327.46
  Q 189.13 322.39 188.39 318.13
  A 1.00 1.00 0.0 0 0 187.43 317.30
  Q 176.99 317.12 166.58 317.41
  C 163.94 317.48 159.97 317.02 156.37 317.78
  A 1.00 1.00 0.0 0 0 155.60 318.97
  Q 156.20 321.76 154.56 324.08
  A 1.03 1.02 57.0 0 0 154.40 324.85
  Q 155.21 328.90 151.66 327.45"
/>
<path stroke="#012e6b" vector-effect="non-scaling-stroke" d="
  M 151.66 327.45
  Q 147.51 321.52 143.25 327.54"
/>
<path stroke="#505e8a" vector-effect="non-scaling-stroke" d="
  M 143.25 327.54
  C 138.39 329.87 135.08 333.71 134.96 339.36
  Q 134.80 346.44 135.46 353.50"
/>
<path stroke="#c1572c" vector-effect="non-scaling-stroke" d="
  M 188.50 327.46
  Q 186.21 327.02 184.00 327.71"
/>
<path stroke="#505e8a" vector-effect="non-scaling-stroke" d="
  M 184.00 327.71
  Q 184.60 324.24 183.10 321.28
  A 1.01 1.01 0.0 0 0 182.20 320.73
  L 163.82 320.79
  Q 161.17 320.80 160.51 322.67
  Q 159.75 324.85 159.99 326.86
  A 1.00 0.99 87.3 0 0 160.95 327.74
  L 172.25 328.04"
/>
<path stroke="#c1572c" vector-effect="non-scaling-stroke" d="
  M 172.25 328.04
  Q 165.09 329.60 158.03 327.69
  A 1.00 0.99 34.0 0 0 157.19 327.85
  Q 153.74 330.31 150.25 327.96"
/>
<path stroke="#4f3020" vector-effect="non-scaling-stroke" d="
  M 150.25 327.96
  L 151.66 327.45"
/>
<path stroke="#735577" vector-effect="non-scaling-stroke" d="
  M 184.00 327.71
  L 172.25 328.04"
/>
<path stroke="#72270d" vector-effect="non-scaling-stroke" d="
  M 150.25 327.96
  L 145.17 328.37"
/>
<path stroke="#4f3020" vector-effect="non-scaling-stroke" d="
  M 145.17 328.37
  L 143.25 327.54"
/>
<path stroke="#72270d" vector-effect="non-scaling-stroke" d="
  M 199.84 328.10
  L 191.75 327.71"
/>
<path stroke="#f2a78c" vector-effect="non-scaling-stroke" d="
  M 208.29 339.50
  L 208.43 354.09"
/>
<path stroke="#f1885c" vector-effect="non-scaling-stroke" d="
  M 208.43 354.09
  C 207.99 364.14 212.29 379.54 195.97 379.70
  Q 172.21 379.94 148.45 379.78
  C 138.35 379.72 135.29 375.36 135.66 365.65
  Q 135.79 362.07 135.86 358.49"
/>
<path stroke="#c1572c" vector-effect="non-scaling-stroke" d="
  M 135.96 354.25
  C 137.06 344.95 132.96 332.04 145.17 328.37"
/>
<path stroke="#80aeea" vector-effect="non-scaling-stroke" d="
  M 333.10 340.79
  L 314.25 338.71"
/>
<path stroke="#3c89e0" vector-effect="non-scaling-stroke" d="
  M 314.25 338.71
  L 306.54 337.25"
/>
<path stroke="#505e8a" vector-effect="non-scaling-stroke" d="
  M 306.54 337.25
  L 306.05 331.48"
/>
<path stroke="#8a8a95" vector-effect="non-scaling-stroke" d="
  M 306.54 337.25
  L 306.50 337.96"
/>
<path stroke="#cfaf9f" vector-effect="non-scaling-stroke" d="
  M 306.50 337.96
  L 305.41 344.54"
/>
<path stroke="#ce906f" vector-effect="non-scaling-stroke" d="
  M 305.41 344.54
  C 302.52 361.72 280.08 358.67 268.72 354.12
  A 1.01 1.00 -76.4 0 1 268.10 353.09
  L 269.25 341.20"
/>
<path stroke="#cfaf9f" vector-effect="non-scaling-stroke" d="
  M 269.25 341.20
  L 269.71 335.50"
/>
<path stroke="#ffe0cf" vector-effect="non-scaling-stroke" d="
  M 269.25 341.20
  Q 262.29 342.01 255.76 344.39
  Q 251.97 345.78 250.03 346.17
  C 244.45 347.29 239.84 345.15 234.56 345.90
  C 225.39 347.22 218.41 354.82 208.43 354.09"
/>
<path stroke="#bbdaf5" vector-effect="non-scaling-stroke" d="
  M 314.25 338.71
  Q 310.30 339.01 306.50 337.96"
/>
<path stroke="#ffe0cf" vector-effect="non-scaling-stroke" d="
  M 330.25 344.96
  Q 325.36 342.95 321.52 343.80
  Q 312.53 345.79 305.41 344.54"
/>
</g>
<path fill="#76b5ea" d="
  M 14.81 0.00
  L 343.33 -0.03
  Q 354.67 5.59 359.01 17.56
  L 359.00 330.06
  L 344.81 341.67
  L 333.13 338.34
  C 338.34 319.20 330.25 302.58 319.00 287.73
  C 309.20 274.80 298.85 262.13 293.00 246.29
  C 309.56 246.20 335.28 244.41 348.20 232.56
  A 1.00 0.98 -23.9 0 0 348.52 231.75
  C 347.97 224.39 343.17 221.83 336.87 219.92
  C 331.69 218.36 321.48 224.65 317.53 227.68
  A 1.01 1.00 39.4 0 1 316.46 227.78
  C 310.74 224.85 295.93 221.43 295.19 231.88
  A 1.01 1.01 0.0 0 1 294.33 232.80
  Q 289.45 233.49 286.54 231.82
  C 277.17 213.58 264.95 200.36 251.00 185.71
  L 274.92 172.67
  Q 276.72 171.69 274.83 170.88
  Q 262.94 165.77 250.57 165.08
  Q 244.40 164.73 239.61 166.26
  Q 234.01 168.05 229.70 171.59
  Q 218.25 163.88 204.71 160.55
  A 0.41 0.40 -72.3 0 0 204.23 160.80
  Q 204.16 160.99 204.21 161.25
  L 198.88 133.76
  Q 198.48 131.70 197.41 133.50
  Q 190.58 144.96 186.57 157.37
  Q 177.76 156.31 172.06 157.03
  Q 163.43 158.12 154.75 158.71
  Q 154.96 157.85 154.67 157.11
  A 1.02 1.01 71.2 0 0 153.45 156.51
  Q 145.79 158.75 142.29 166.00
  Q 138.84 164.52 135.71 166.25
  Q 130.40 163.22 124.48 161.69
  A 0.80 0.80 0.0 0 0 123.65 161.98
  C 123.00 162.84 123.81 163.18 124.53 163.35
  Q 128.84 164.35 132.54 166.75
  Q 131.44 168.60 130.20 169.22
  C 102.50 182.97 74.87 204.95 57.46 231.25
  Q 51.13 228.08 44.46 230.60
  A 1.05 1.04 -83.9 0 0 43.98 230.99
  Q 38.60 239.14 37.26 248.82
  A 1.04 1.02 80.7 0 1 36.73 249.57
  L 23.48 256.45
  A 1.02 1.01 85.7 0 0 22.98 257.04
  C 19.49 268.01 32.01 269.21 39.00 269.54
  Q 34.36 286.89 35.25 304.69
  Q 17.09 292.95 -0.03 279.73
  L 0.00 12.94
  Q 4.27 2.91 14.81 0.00
  Z
  M 91.90 185.63
  Q 93.09 186.97 93.61 185.26
  Q 95.81 178.04 100.51 172.03
  Q 102.18 169.89 105.65 168.13
  A 1.01 1.01 0.0 0 0 106.17 167.47
  C 106.42 166.38 104.81 166.73 104.26 167.03
  Q 98.16 170.38 95.22 176.78
  Q 94.01 179.40 92.78 181.98
  A 1.00 0.99 -61.3 0 1 91.35 182.40
  Q 82.44 176.79 70.54 175.27
  Q 69.64 175.16 69.79 175.98
  A 0.64 0.63 1.4 0 0 70.29 176.50
  Q 77.91 178.04 85.17 180.87
  Q 89.02 182.37 91.90 185.63
  Z"
/>
<path fill="#2a8940" d="
  M 204.21 161.25
  L 211.28 198.01
  Q 206.47 195.82 202.24 198.39
  A 1.04 0.97 88.0 0 0 201.85 198.84
  L 199.56 203.92
  A 0.99 0.98 43.4 0 0 199.59 204.81
  Q 201.21 207.79 204.07 209.17
  Q 205.35 209.79 203.94 209.95
  Q 201.20 210.25 198.96 212.25
  Q 172.87 219.02 146.28 223.42
  Q 136.95 224.96 127.51 225.32
  Q 123.63 225.47 125.48 222.02
  C 131.13 211.48 143.13 202.60 153.35 196.88
  C 163.28 191.33 170.20 189.87 181.01 192.50
  Q 189.62 194.59 199.30 199.71
  Q 200.58 200.38 200.25 199.23
  A 0.99 0.97 10.8 0 0 199.89 198.71
  C 185.49 187.95 181.47 174.63 186.57 157.37
  Q 190.58 144.96 197.41 133.50
  Q 198.48 131.70 198.88 133.76
  L 204.21 161.25
  Z"
/>
<path fill="#000001" d="
  M 154.75 158.71
  C 146.16 159.72 140.87 168.34 142.20 176.50
  C 142.50 178.36 141.42 177.06 141.29 176.55
  Q 139.48 169.41 132.54 166.75
  Q 128.84 164.35 124.53 163.35
  C 123.81 163.18 123.00 162.84 123.65 161.98
  A 0.80 0.80 0.0 0 1 124.48 161.69
  Q 130.40 163.22 135.71 166.25
  L 139.69 169.47
  A 1.00 0.99 -61.2 0 0 141.26 169.01
  L 142.29 166.00
  Q 145.79 158.75 153.45 156.51
  A 1.02 1.01 71.2 0 1 154.67 157.11
  Q 154.96 157.85 154.75 158.71
  Z"
/>
<path fill="#bddbff" d="
  M 186.57 157.37
  C 181.47 174.63 185.49 187.95 199.89 198.71
  A 0.99 0.97 10.8 0 1 200.25 199.23
  Q 200.58 200.38 199.30 199.71
  Q 189.62 194.59 181.01 192.50
  C 170.20 189.87 163.28 191.33 153.35 196.88
  C 143.13 202.60 131.13 211.48 125.48 222.02
  Q 123.63 225.47 127.51 225.32
  Q 136.95 224.96 146.28 223.42
  Q 172.87 219.02 198.96 212.25
  L 196.46 215.50
  Q 177.90 226.03 172.54 246.75
  C 158.33 236.74 143.36 237.80 136.28 255.29
  Q 135.64 256.86 133.39 264.70
  A 1.01 1.00 -68.5 0 1 131.98 265.32
  Q 123.04 260.84 117.42 260.29
  Q 107.75 259.34 103.60 265.79
  Q 100.93 269.92 100.91 278.63
  Q 100.90 284.84 101.78 291.01
  Q 102.09 293.13 100.47 291.73
  Q 96.99 288.73 92.22 287.92
  C 84.94 286.68 81.41 295.26 80.41 301.01
  C 79.79 304.56 80.32 308.69 81.95 311.75
  Q 83.14 314.01 80.73 313.16
  C 72.16 310.15 61.57 312.28 61.55 323.50
  Q 61.54 332.56 62.04 337.50
  L 42.92 343.45
  Q 41.08 339.41 39.99 334.50
  Q 36.51 318.80 35.25 304.69
  Q 34.36 286.89 39.00 269.54
  C 56.11 267.99 72.83 263.97 90.10 258.68
  Q 98.79 256.03 107.05 252.32
  C 113.20 249.56 123.80 241.92 114.03 235.32
  Q 104.24 228.70 92.38 233.42
  Q 89.54 234.55 87.86 232.16
  L 83.95 226.56
  Q 82.28 224.17 79.52 224.26
  C 71.69 224.51 67.91 228.72 62.57 233.75
  A 1.02 1.01 -49.3 0 1 61.32 233.85
  L 57.46 231.25
  C 74.87 204.95 102.50 182.97 130.20 169.22
  Q 131.44 168.60 132.54 166.75
  Q 139.48 169.41 141.29 176.55
  C 141.42 177.06 142.50 178.36 142.20 176.50
  C 140.87 168.34 146.16 159.72 154.75 158.71
  Q 163.43 158.12 172.06 157.03
  Q 177.76 156.31 186.57 157.37
  Z
  M 110.56 209.68
  A 0.99 0.99 0.0 0 1 108.89 210.06
  Q 102.94 203.80 94.86 200.69
  C 94.19 200.43 92.02 200.11 92.59 201.40
  A 0.83 0.81 86.2 0 0 93.07 201.83
  Q 102.21 204.93 108.50 212.26
  Q 109.21 213.09 109.62 215.39
  Q 110.17 218.51 110.87 215.42
  Q 111.12 214.33 111.42 212.93
  C 112.63 207.19 116.47 198.76 122.83 196.60
  A 1.02 1.00 2.8 0 0 123.41 196.08
  Q 124.27 194.25 122.31 194.81
  Q 117.95 196.06 114.64 201.15
  Q 111.99 205.23 110.56 209.68
  Z"
/>
<path fill="#bddbff" d="
  M 229.70 171.59
  Q 222.19 179.43 217.25 187.96
  Q 211.23 190.63 212.41 197.07
  C 212.53 197.70 212.14 199.05 211.28 198.01
  L 204.21 161.25
  Q 204.16 160.99 204.23 160.80
  A 0.41 0.40 -72.3 0 1 204.71 160.55
  Q 218.25 163.88 229.70 171.59
  Z"
/>
<path fill="#2a8940" d="
  M 251.00 185.71
  L 223.79 200.00
  C 228.62 194.41 224.53 187.11 217.25 187.96
  Q 222.19 179.43 229.70 171.59
  Q 234.01 168.05 239.61 166.26
  Q 244.40 164.73 250.57 165.08
  Q 262.94 165.77 274.83 170.88
  Q 276.72 171.69 274.92 172.67
  L 251.00 185.71
  Z"
/>
<path fill="#bddbff" d="
  M 142.29 166.00
  L 141.26 169.01
  A 1.00 0.99 -61.2 0 1 139.69 169.47
  L 135.71 166.25
  Q 138.84 164.52 142.29 166.00
  Z"
/>
<path fill="#000001" d="
  M 91.90 185.63
  Q 89.02 182.37 85.17 180.87
  Q 77.91 178.04 70.29 176.50
  A 0.64 0.63 1.4 0 1 69.79 175.98
  Q 69.64 175.16 70.54 175.27
  Q 82.44 176.79 91.35 182.40
  A 1.00 0.99 -61.3 0 0 92.78 181.98
  Q 94.01 179.40 95.22 176.78
  Q 98.16 170.38 104.26 167.03
  C 104.81 166.73 106.42 166.38 106.17 167.47
  A 1.01 1.01 0.0 0 1 105.65 168.13
  Q 102.18 169.89 100.51 172.03
  Q 95.81 178.04 93.61 185.26
  Q 93.09 186.97 91.90 185.63
  Z"
/>
<path fill="#bddbff" d="
  M 251.00 185.71
  C 264.95 200.36 277.17 213.58 286.54 231.82
  L 275.38 233.35
  C 269.60 220.23 259.87 207.69 245.25 204.94
  Q 233.12 202.66 220.75 203.29
  Q 219.53 203.49 218.96 202.50
  L 219.04 202.25
  L 223.79 200.00
  L 251.00 185.71
  Z"
/>
<path fill="#cf7b3c" d="
  M 217.25 187.96
  C 224.53 187.11 228.62 194.41 223.79 200.00
  L 219.04 202.25
  Q 217.98 200.75 216.07 201.24
  A 1.02 1.00 60.5 0 1 215.10 200.96
  L 213.17 198.95
  A 0.65 0.64 -19.0 0 0 212.75 198.75
  L 212.40 198.73
  Q 211.80 198.69 212.18 199.16
  Q 214.06 201.46 213.22 204.71
  Q 212.23 208.54 209.25 210.14
  A 1.01 0.99 51.3 0 0 209.08 211.78
  Q 214.09 216.08 210.96 222.75
  Q 207.16 225.86 202.70 226.60
  Q 194.41 223.66 196.46 215.50
  L 198.96 212.25
  Q 201.20 210.25 203.94 209.95
  Q 205.35 209.79 204.07 209.17
  Q 201.21 207.79 199.59 204.81
  A 0.99 0.98 43.4 0 1 199.56 203.92
  L 201.85 198.84
  A 1.04 0.97 88.0 0 1 202.24 198.39
  Q 206.47 195.82 211.28 198.01
  C 212.14 199.05 212.53 197.70 212.41 197.07
  Q 211.23 190.63 217.25 187.96
  Z"
/>
<path fill="#000001" d="
  M 110.56 209.68
  Q 111.99 205.23 114.64 201.15
  Q 117.95 196.06 122.31 194.81
  Q 124.27 194.25 123.41 196.08
  A 1.02 1.00 2.8 0 1 122.83 196.60
  C 116.47 198.76 112.63 207.19 111.42 212.93
  Q 111.12 214.33 110.87 215.42
  Q 110.17 218.51 109.62 215.39
  Q 109.21 213.09 108.50 212.26
  Q 102.21 204.93 93.07 201.83
  A 0.83 0.81 86.2 0 1 92.59 201.40
  C 92.02 200.11 94.19 200.43 94.86 200.69
  Q 102.94 203.80 108.89 210.06
  A 0.99 0.99 0.0 0 0 110.56 209.68
  Z"
/>
<path fill="#2a8940" d="
  M 219.04 202.25
  L 218.96 202.50
  C 215.67 204.25 210.79 208.07 211.50 212.32
  Q 212.71 219.68 220.63 220.25
  A 1.04 1.01 -16.2 0 1 221.34 220.63
  L 224.77 224.97
  Q 232.90 239.44 228.81 256.27
  Q 226.21 266.99 221.78 275.50
  Q 220.69 277.59 220.28 275.27
  L 210.96 222.75
  Q 214.09 216.08 209.08 211.78
  A 1.01 0.99 51.3 0 1 209.25 210.14
  Q 212.23 208.54 213.22 204.71
  Q 214.06 201.46 212.18 199.16
  Q 211.80 198.69 212.40 198.73
  L 212.75 198.75
  A 0.65 0.64 -19.0 0 1 213.17 198.95
  L 215.10 200.96
  A 1.02 1.00 60.5 0 0 216.07 201.24
  Q 217.98 200.75 219.04 202.25
  Z"
/>
<path fill="#cf7b3c" d="
  M 218.96 202.50
  Q 219.53 203.49 220.75 203.29
  Q 221.37 203.39 221.43 203.95
  A 0.65 0.64 3.2 0 0 221.94 204.51
  C 228.86 205.92 227.85 211.06 227.12 216.42
  A 0.99 0.98 -75.5 0 0 227.74 217.48
  L 237.50 221.29
  L 230.25 229.29
  Q 228.03 226.48 224.77 224.97
  L 221.34 220.63
  A 1.04 1.01 -16.2 0 0 220.63 220.25
  Q 212.71 219.68 211.50 212.32
  C 210.79 208.07 215.67 204.25 218.96 202.50
  Z"
/>
<path fill="#2a8940" d="
  M 220.75 203.29
  Q 233.12 202.66 245.25 204.94
  C 259.87 207.69 269.60 220.23 275.38 233.35
  L 274.96 234.75
  L 243.03 223.41
  L 237.50 221.29
  L 227.74 217.48
  A 0.99 0.98 -75.5 0 1 227.12 216.42
  C 227.85 211.06 228.86 205.92 221.94 204.51
  A 0.65 0.64 3.2 0 1 221.43 203.95
  Q 221.37 203.39 220.75 203.29
  Z"
/>
<path fill="#2a8940" d="
  M 196.46 215.50
  Q 194.41 223.66 202.70 226.60
  L 185.54 258.25
  L 174.70 277.58
  A 1.00 1.00 0.0 0 1 173.06 277.73
  C 167.66 271.30 171.00 254.37 172.54 246.75
  Q 177.90 226.03 196.46 215.50
  Z"
/>
<path fill="#69b6d0" d="
  M 293.00 246.29
  C 285.82 245.81 273.94 244.35 274.96 234.75
  L 275.38 233.35
  L 286.54 231.82
  Q 289.45 233.49 294.33 232.80
  A 1.01 1.01 0.0 0 0 295.19 231.88
  C 295.93 221.43 310.74 224.85 316.46 227.78
  A 1.01 1.00 39.4 0 0 317.53 227.68
  C 321.48 224.65 331.69 218.36 336.87 219.92
  C 343.17 221.83 347.97 224.39 348.52 231.75
  A 1.00 0.98 -23.9 0 1 348.20 232.56
  C 335.28 244.41 309.56 246.20 293.00 246.29
  Z"
/>
<path fill="#9e5f3f" d="
  M 237.50 221.29
  L 243.03 223.41
  L 254.00 231.71
  Q 249.51 237.78 244.12 243.22
  L 230.25 229.29
  L 237.50 221.29
  Z"
/>
<path fill="#bddbff" d="
  M 210.96 222.75
  L 220.28 275.27
  Q 220.69 277.59 221.78 275.50
  Q 226.21 266.99 228.81 256.27
  Q 232.90 239.44 224.77 224.97
  Q 228.03 226.48 230.25 229.29
  L 244.12 243.22
  L 256.50 257.29
  L 264.16 267.74
  Q 269.90 277.16 270.43 288.63
  L 271.24 308.76
  L 270.48 319.85
  L 257.83 316.87
  Q 258.31 303.24 244.77 302.62
  Q 238.56 302.33 232.64 304.02
  A 1.00 1.00 0.0 0 1 231.39 303.30
  C 228.84 292.93 224.11 284.52 211.84 285.56
  Q 205.95 286.05 200.43 288.44
  Q 198.39 289.33 199.40 287.35
  Q 201.09 284.05 201.77 280.38
  C 204.35 266.59 197.60 261.71 185.54 258.25
  L 202.70 226.60
  Q 207.16 225.86 210.96 222.75
  Z"
/>
<path fill="#bddbff" d="
  M 243.03 223.41
  L 274.96 234.75
  C 273.94 244.35 285.82 245.81 293.00 246.29
  C 298.85 262.13 309.20 274.80 319.00 287.73
  C 330.25 302.58 338.34 319.20 333.13 338.34
  L 306.14 329.13
  Q 305.25 317.18 302.61 306.96
  Q 299.02 290.98 292.42 276.47
  Q 287.20 263.70 277.79 253.50
  Q 272.11 246.19 264.79 240.50
  Q 259.76 235.66 254.00 231.71
  L 243.03 223.41
  Z"
/>
<path fill="#69b6d0" d="
  M 39.00 269.54
  C 32.01 269.21 19.49 268.01 22.98 257.04
  A 1.02 1.01 85.7 0 1 23.48 256.45
  L 36.73 249.57
  A 1.04 1.02 80.7 0 0 37.26 248.82
  Q 38.60 239.14 43.98 230.99
  A 1.05 1.04 -83.9 0 1 44.46 230.60
  Q 51.13 228.08 57.46 231.25
  L 61.32 233.85
  A 1.02 1.01 -49.3 0 0 62.57 233.75
  C 67.91 228.72 71.69 224.51 79.52 224.26
  Q 82.28 224.17 83.95 226.56
  L 87.86 232.16
  Q 89.54 234.55 92.38 233.42
  Q 104.24 228.70 114.03 235.32
  C 123.80 241.92 113.20 249.56 107.05 252.32
  Q 98.79 256.03 90.10 258.68
  C 72.83 263.97 56.11 267.99 39.00 269.54
  Z"
/>
<path fill="#cf7b3c" d="
  M 254.00 231.71
  Q 259.76 235.66 264.79 240.50
  Q 263.65 250.41 256.50 257.29
  L 244.12 243.22
  Q 249.51 237.78 254.00 231.71
  Z"
/>
<path fill="#ffffff" d="
  M 172.54 246.75
  C 171.00 254.37 167.66 271.30 173.06 277.73
  A 1.00 1.00 0.0 0 0 174.70 277.58
  L 185.54 258.25
  C 197.60 261.71 204.35 266.59 201.77 280.38
  Q 201.09 284.05 199.40 287.35
  Q 198.39 289.33 200.43 288.44
  Q 205.95 286.05 211.84 285.56
  C 224.11 284.52 228.84 292.93 231.39 303.30
  A 1.00 1.00 0.0 0 0 232.64 304.02
  Q 238.56 302.33 244.77 302.62
  Q 258.31 303.24 257.83 316.87
  Q 226.97 309.38 195.51 308.78
  C 163.33 285.41 124.54 291.23 103.58 326.06
  Q 101.96 326.39 100.26 326.87
  Q 81.17 332.27 62.04 337.50
  Q 61.54 332.56 61.55 323.50
  C 61.57 312.28 72.16 310.15 80.73 313.16
  Q 83.14 314.01 81.95 311.75
  C 80.32 308.69 79.79 304.56 80.41 301.01
  C 81.41 295.26 84.94 286.68 92.22 287.92
  Q 96.99 288.73 100.47 291.73
  Q 102.09 293.13 101.78 291.01
  Q 100.90 284.84 100.91 278.63
  Q 100.93 269.92 103.60 265.79
  Q 107.75 259.34 117.42 260.29
  Q 123.04 260.84 131.98 265.32
  A 1.01 1.00 -68.5 0 0 133.39 264.70
  Q 135.64 256.86 136.28 255.29
  C 143.36 237.80 158.33 236.74 172.54 246.75
  Z"
/>
<path fill="#9e5f3f" d="
  M 264.79 240.50
  Q 272.11 246.19 277.79 253.50
  Q 272.27 261.90 264.16 267.74
  L 256.50 257.29
  Q 263.65 250.41 264.79 240.50
  Z"
/>
<path fill="#cf7b3c" d="
  M 277.79 253.50
  Q 287.20 263.70 292.42 276.47
  Q 284.17 287.29 270.43 288.63
  Q 269.90 277.16 264.16 267.74
  Q 272.27 261.90 277.79 253.50
  Z"
/>
<path fill="#9e5f3f" d="
  M 292.42 276.47
  Q 299.02 290.98 302.61 306.96
  Q 286.97 309.34 271.24 308.76
  L 270.43 288.63
  Q 284.17 287.29 292.42 276.47
  Z"
/>
<path fill="#eebe03" d="
  M 195.51 308.78
  Q 192.01 309.27 188.48 309.63
  C 170.24 311.48 152.63 315.18 134.71 318.85
  Q 119.06 322.05 103.58 326.06
  C 124.54 291.23 163.33 285.41 195.51 308.78
  Z"
/>
<path fill="#cf7b3c" d="
  M 302.61 306.96
  Q 305.25 317.18 306.14 329.13
  L 306.05 331.48
  Q 305.07 333.05 304.00 333.08
  Q 291.74 333.34 273.71 331.96
  C 272.13 331.84 270.00 333.21 270.21 330.50
  C 271.04 327.31 270.29 323.17 270.48 319.85
  L 271.24 308.76
  Q 286.97 309.34 302.61 306.96
  Z"
/>
<path fill="#015cd5" d="
  M 195.51 308.78
  Q 226.97 309.38 257.83 316.87
  L 270.48 319.85
  C 270.29 323.17 271.04 327.31 270.21 330.50
  L 269.71 335.50
  Q 246.77 335.66 223.92 337.65
  C 219.43 338.04 213.58 339.27 208.29 339.50
  Q 208.52 330.24 199.84 328.10
  Q 200.84 325.67 197.74 325.29
  C 196.71 325.16 189.96 325.97 191.75 327.71
  L 188.50 327.46
  Q 189.13 322.39 188.39 318.13
  A 1.00 1.00 0.0 0 0 187.43 317.30
  Q 176.99 317.12 166.58 317.41
  C 163.94 317.48 159.97 317.02 156.37 317.78
  A 1.00 1.00 0.0 0 0 155.60 318.97
  Q 156.20 321.76 154.56 324.08
  A 1.03 1.02 57.0 0 0 154.40 324.85
  Q 155.21 328.90 151.66 327.45
  Q 147.51 321.52 143.25 327.54
  C 138.39 329.87 135.08 333.71 134.96 339.36
  Q 134.80 346.44 135.46 353.50
  C 103.81 358.78 72.27 367.56 41.52 376.16
  A 0.98 0.97 -34.8 0 1 40.66 376.01
  C 27.78 366.63 30.02 351.13 42.92 343.45
  L 62.04 337.50
  Q 81.17 332.27 100.26 326.87
  Q 101.96 326.39 103.58 326.06
  Q 119.06 322.05 134.71 318.85
  C 152.63 315.18 170.24 311.48 188.48 309.63
  Q 192.01 309.27 195.51 308.78
  Z"
/>
<path fill="#9e5f3f" d="
  M 188.50 327.46
  Q 186.21 327.02 184.00 327.71
  Q 184.60 324.24 183.10 321.28
  A 1.01 1.01 0.0 0 0 182.20 320.73
  L 163.82 320.79
  Q 161.17 320.80 160.51 322.67
  Q 159.75 324.85 159.99 326.86
  A 1.00 0.99 87.3 0 0 160.95 327.74
  L 172.25 328.04
  Q 165.09 329.60 158.03 327.69
  A 1.00 0.99 34.0 0 0 157.19 327.85
  Q 153.74 330.31 150.25 327.96
  L 151.66 327.45
  Q 155.21 328.90 154.40 324.85
  A 1.03 1.02 57.0 0 1 154.56 324.08
  Q 156.20 321.76 155.60 318.97
  A 1.00 1.00 0.0 0 1 156.37 317.78
  C 159.97 317.02 163.94 317.48 166.58 317.41
  Q 176.99 317.12 187.43 317.30
  A 1.00 1.00 0.0 0 1 188.39 318.13
  Q 189.13 322.39 188.50 327.46
  Z"
/>
<path fill="#015cd5" d="
  M 184.00 327.71
  L 172.25 328.04
  L 160.95 327.74
  A 1.00 0.99 87.3 0 1 159.99 326.86
  Q 159.75 324.85 160.51 322.67
  Q 161.17 320.80 163.82 320.79
  L 182.20 320.73
  A 1.01 1.01 0.0 0 1 183.10 321.28
  Q 184.60 324.24 184.00 327.71
  Z"
/>
<path fill="#000001" d="
  M 151.66 327.45
  L 150.25 327.96
  L 145.17 328.37
  L 143.25 327.54
  Q 147.51 321.52 151.66 327.45
  Z"
/>
<path fill="#000001" d="
  M 199.84 328.10
  L 191.75 327.71
  C 189.96 325.97 196.71 325.16 197.74 325.29
  Q 200.84 325.67 199.84 328.10
  Z"
/>
<path fill="#e44e19" d="
  M 188.50 327.46
  L 191.75 327.71
  L 199.84 328.10
  Q 208.52 330.24 208.29 339.50
  L 208.43 354.09
  C 207.99 364.14 212.29 379.54 195.97 379.70
  Q 172.21 379.94 148.45 379.78
  C 138.35 379.72 135.29 375.36 135.66 365.65
  Q 135.79 362.07 135.86 358.49
  L 135.96 354.25
  C 137.06 344.95 132.96 332.04 145.17 328.37
  L 150.25 327.96
  Q 153.74 330.31 157.19 327.85
  A 1.00 0.99 34.0 0 1 158.03 327.69
  Q 165.09 329.60 172.25 328.04
  L 184.00 327.71
  Q 186.21 327.02 188.50 327.46
  Z"
/>
<path fill="#9e5f3f" d="
  M 143.25 327.54
  L 145.17 328.37
  C 132.96 332.04 137.06 344.95 135.96 354.25
  L 135.46 353.50
  Q 134.80 346.44 134.96 339.36
  C 135.08 333.71 138.39 329.87 143.25 327.54
  Z"
/>
<path fill="#015cd5" d="
  M 306.14 329.13
  L 333.13 338.34
  L 344.81 341.67
  C 346.00 342.33 349.66 343.64 350.22 344.34
  C 351.32 345.71 343.85 342.88 342.99 342.82
  Q 337.91 342.50 333.10 340.79
  L 314.25 338.71
  L 306.54 337.25
  L 306.05 331.48
  L 306.14 329.13
  Z"
/>
<path fill="#9e5f3f" d="
  M 270.21 330.50
  C 270.00 333.21 272.13 331.84 273.71 331.96
  Q 291.74 333.34 304.00 333.08
  Q 305.07 333.05 306.05 331.48
  L 306.54 337.25
  L 306.50 337.96
  L 305.41 344.54
  C 302.52 361.72 280.08 358.67 268.72 354.12
  A 1.01 1.00 -76.4 0 1 268.10 353.09
  L 269.25 341.20
  L 269.71 335.50
  L 270.21 330.50
  Z"
/>
<path fill="#ffffff" d="
  M 269.71 335.50
  L 269.25 341.20
  Q 262.29 342.01 255.76 344.39
  Q 251.97 345.78 250.03 346.17
  C 244.45 347.29 239.84 345.15 234.56 345.90
  C 225.39 347.22 218.41 354.82 208.43 354.09
  L 208.29 339.50
  C 213.58 339.27 219.43 338.04 223.92 337.65
  Q 246.77 335.66 269.71 335.50
  Z"
/>
<path fill="#76b5ea" d="
  M 306.54 337.25
  L 314.25 338.71
  Q 310.30 339.01 306.50 337.96
  L 306.54 337.25
  Z"
/>
<path fill="#ffffff" d="
  M 306.50 337.96
  Q 310.30 339.01 314.25 338.71
  L 333.10 340.79
  Q 329.17 341.11 330.25 344.96
  Q 325.36 342.95 321.52 343.80
  Q 312.53 345.79 305.41 344.54
  L 306.50 337.96
  Z"
/>
<path fill="#fec19e" d="
  M 269.25 341.20
  L 268.10 353.09
  A 1.01 1.00 -76.4 0 0 268.72 354.12
  C 280.08 358.67 302.52 361.72 305.41 344.54
  Q 312.53 345.79 321.52 343.80
  Q 325.36 342.95 330.25 344.96
  C 332.50 346.29 335.51 345.54 330.15 347.29
  Q 329.90 347.36 329.73 347.55
  C 314.69 363.60 294.96 372.32 273.80 378.04
  C 244.95 385.84 216.19 390.59 186.83 391.84
  Q 149.95 393.42 115.68 391.34
  Q 107.37 390.84 95.98 388.87
  Q 85.99 387.14 76.82 382.81
  A 1.00 1.00 0.0 0 1 76.61 381.14
  Q 82.26 376.48 88.99 373.55
  C 94.37 371.21 101.10 370.98 107.14 370.03
  C 113.57 369.01 119.35 366.01 125.34 363.52
  C 128.61 362.17 134.52 362.28 135.86 358.49
  Q 135.79 362.07 135.66 365.65
  C 135.29 375.36 138.35 379.72 148.45 379.78
  Q 172.21 379.94 195.97 379.70
  C 212.29 379.54 207.99 364.14 208.43 354.09
  C 218.41 354.82 225.39 347.22 234.56 345.90
  C 239.84 345.15 244.45 347.29 250.03 346.17
  Q 251.97 345.78 255.76 344.39
  Q 262.29 342.01 269.25 341.20
  Z"
/>
</svg>
