<?xml version="1.0" encoding="UTF-8" standalone="no"?>
<!DOCTYPE svg PUBLIC "-//W3C//DTD SVG 1.1//EN" "http://www.w3.org/Graphics/SVG/1.1/DTD/svg11.dtd">
<svg xmlns="http://www.w3.org/2000/svg" version="1.1" viewBox="0 0 367 425">
<g stroke-width="2.00" fill="none" stroke-linecap="butt">
<path stroke="#feece4" vector-effect="non-scaling-stroke" d="
  M 367.00 147.63
  Q 354.71 147.33 342.52 148.56
  Q 342.21 148.59 330.46 149.66
  Q 322.38 150.40 314.43 152.19"
/>
<path stroke="#f6cc65" vector-effect="non-scaling-stroke" d="
  M 314.43 152.19
  C 295.52 135.65 271.50 125.13 246.75 120.99
  Q 197.02 112.68 145.97 121.23"
/>
<path stroke="#feece4" vector-effect="non-scaling-stroke" d="
  M 145.97 121.23
  C 142.52 120.96 141.24 117.03 136.71 118.58
  Q 129.40 121.06 123.77 126.45
  A 1.00 1.00 0.0 0 1 122.11 125.99
  Q 120.39 119.61 116.93 114.10
  C 107.46 99.05 88.42 95.15 76.70 110.55
  Q 69.97 119.38 68.81 131.02
  A 1.00 1.00 0.0 0 1 67.70 131.91
  C 58.85 130.90 41.09 133.32 44.90 146.84
  Q 45.99 150.72 49.81 151.42
  Q 57.30 152.80 68.13 154.15"
/>
<path stroke="#f6cc65" vector-effect="non-scaling-stroke" d="
  M 68.13 154.15
  C 34.54 186.46 24.67 230.88 27.40 275.56
  Q 28.96 301.25 39.26 326.20
  Q 39.61 327.05 40.21 326.50"
/>
<path stroke="#feece4" vector-effect="non-scaling-stroke" d="
  M 40.21 326.50
  C 40.60 328.75 35.99 331.66 33.99 332.94
  C 30.73 335.03 27.20 338.07 23.03 340.28
  Q 7.08 348.72 3.80 350.32"
/>
<path stroke="#f7df80" vector-effect="non-scaling-stroke" d="
  M 145.97 121.23
  Q 150.63 126.60 152.66 132.60
  A 1.01 1.01 0.0 0 0 153.74 133.27
  C 159.42 132.51 172.63 131.24 176.33 136.69
  C 187.38 152.94 75.05 154.19 68.13 154.15"
/>
<path stroke="#f7df80" vector-effect="non-scaling-stroke" d="
  M 314.43 152.19
  Q 328.40 165.95 337.59 183.11
  A 1.04 1.02 87.0 0 0 338.08 183.56
  C 339.24 184.05 345.36 201.46 345.83 202.93
  Q 351.21 219.80 351.95 237.56
  A 1.02 0.98 -70.3 0 0 352.25 238.23
  C 353.23 239.20 352.56 240.50 352.60 241.29
  C 353.63 262.76 351.32 286.83 342.91 306.75
  Q 340.09 313.44 337.06 320.01
  A 1.00 1.00 0.0 0 1 335.58 320.41
  Q 323.42 311.97 308.36 311.87
  A 1.00 1.00 0.0 0 1 307.37 310.78
  Q 308.56 297.77 297.95 294.94
  C 288.92 292.53 285.10 304.54 283.76 310.73
  A 1.01 1.00 0.4 0 1 282.97 311.50
  Q 281.60 311.76 280.20 311.78
  C 274.60 311.86 269.20 315.45 266.98 320.27
  Q 265.99 322.42 266.61 326.31
  A 0.99 0.99 0.0 0 1 265.78 327.45
  Q 261.13 328.19 257.08 330.51
  C 256.04 331.11 254.41 332.96 255.97 333.74
  Q 257.31 334.42 258.82 334.44
  Q 291.03 334.76 321.09 330.35
  C 323.91 329.94 326.75 329.11 329.52 328.38
  Q 332.90 327.49 330.50 330.03
  C 326.80 333.96 323.76 338.75 320.04 342.26
  Q 313.64 348.27 306.57 353.49
  C 305.77 354.08 305.00 355.40 304.45 355.70
  C 302.25 356.90 292.69 363.23 291.03 363.03
  A 1.07 1.02 -53.6 0 0 290.47 363.13
  Q 280.53 367.99 278.20 368.71
  Q 268.38 371.75 258.72 375.22
  C 247.44 379.27 236.80 379.98 226.15 381.61
  Q 216.33 383.12 207.78 383.63
  Q 178.82 385.34 149.81 384.88
  C 126.49 384.51 100.72 381.76 80.35 370.41
  C 72.21 365.86 62.25 357.52 56.07 351.93
  Q 54.14 350.18 54.45 347.03
  A 1.01 0.99 87.7 0 1 55.25 346.15
  Q 83.49 340.53 111.74 335.03
  Q 114.49 334.49 117.25 334.99
  Q 150.50 341.05 183.81 346.87
  A 0.97 0.95 33.3 0 0 184.51 346.73
  Q 186.65 345.40 190.75 343.49
  Q 217.44 331.08 244.28 318.48
  A 1.01 0.99 72.8 0 0 244.84 317.40
  Q 242.86 306.32 241.19 294.91
  C 239.17 281.11 235.70 265.57 234.30 250.62"
/>
<path stroke="#786001" vector-effect="non-scaling-stroke" d="
  M 234.30 250.62
  Q 237.79 249.36 239.60 246.13
  A 0.65 0.63 39.0 0 0 239.51 245.38
  L 239.31 245.17
  A 0.52 0.51 -44.6 0 0 238.56 245.17
  L 234.04 250.00"
/>
<path stroke="#f7df80" vector-effect="non-scaling-stroke" d="
  M 234.04 250.00
  Q 231.35 236.39 229.68 222.62
  A 0.21 0.21 0.0 0 0 229.62 222.50
  L 229.44 222.32
  A 0.69 0.63 22.8 0 1 229.26 221.93
  Q 228.06 209.61 225.63 197.48
  A 1.00 1.00 0.0 0 0 224.21 196.78
  L 170.61 222.89
  A 0.98 0.97 36.2 0 1 170.02 222.98
  L 107.29 212.89
  Q 107.07 212.85 106.85 212.91
  L 39.86 232.04
  A 1.01 1.00 84.5 0 0 39.14 232.92
  Q 38.80 236.82 39.31 242.69
  Q 39.91 249.53 39.71 262.58
  C 39.41 281.70 40.03 303.85 40.50 319.25
  Q 40.63 323.57 40.21 326.50"
/>
<path stroke="#808080" vector-effect="non-scaling-stroke" d="
  M 234.04 250.00
  L 234.30 250.62"
/>
</g>
<path fill="#fdd9c9" d="
  M 367.00 23.81
  L 367.00 147.63
  Q 354.71 147.33 342.52 148.56
  Q 342.21 148.59 330.46 149.66
  Q 322.38 150.40 314.43 152.19
  C 295.52 135.65 271.50 125.13 246.75 120.99
  Q 197.02 112.68 145.97 121.23
  C 142.52 120.96 141.24 117.03 136.71 118.58
  Q 129.40 121.06 123.77 126.45
  A 1.00 1.00 0.0 0 1 122.11 125.99
  Q 120.39 119.61 116.93 114.10
  C 107.46 99.05 88.42 95.15 76.70 110.55
  Q 69.97 119.38 68.81 131.02
  A 1.00 1.00 0.0 0 1 67.70 131.91
  C 58.85 130.90 41.09 133.32 44.90 146.84
  Q 45.99 150.72 49.81 151.42
  Q 57.30 152.80 68.13 154.15
  C 34.54 186.46 24.67 230.88 27.40 275.56
  Q 28.96 301.25 39.26 326.20
  Q 39.61 327.05 40.21 326.50
  C 40.60 328.75 35.99 331.66 33.99 332.94
  C 30.73 335.03 27.20 338.07 23.03 340.28
  Q 7.08 348.72 3.80 350.32
  Q 2.25 352.18 0.00 351.94
  L 0.00 23.69
  C 3.69 13.98 11.87 5.50 22.50 3.98
  Q 28.59 3.11 49.32 2.35
  Q 58.42 2.02 69.32 2.02
  Q 187.03 1.98 304.75 2.01
  Q 307.74 2.01 317.43 2.44
  C 325.29 2.78 334.90 4.63 343.91 4.52
  C 356.12 4.36 361.50 13.93 367.00 23.81
  Z"
/>
<path fill="#ffffff" d="
  M 145.97 121.23
  Q 150.63 126.60 152.66 132.60
  A 1.01 1.01 0.0 0 0 153.74 133.27
  C 159.42 132.51 172.63 131.24 176.33 136.69
  C 187.38 152.94 75.05 154.19 68.13 154.15
  Q 57.30 152.80 49.81 151.42
  Q 45.99 150.72 44.90 146.84
  C 41.09 133.32 58.85 130.90 67.70 131.91
  A 1.00 1.00 0.0 0 0 68.81 131.02
  Q 69.97 119.38 76.70 110.55
  C 88.42 95.15 107.46 99.05 116.93 114.10
  Q 120.39 119.61 122.11 125.99
  A 1.00 1.00 0.0 0 0 123.77 126.45
  Q 129.40 121.06 136.71 118.58
  C 141.24 117.03 142.52 120.96 145.97 121.23
  Z"
/>
<path fill="#efbe00" d="
  M 314.43 152.19
  Q 328.40 165.95 337.59 183.11
  A 1.04 1.02 87.0 0 0 338.08 183.56
  C 339.24 184.05 345.36 201.46 345.83 202.93
  Q 351.21 219.80 351.95 237.56
  A 1.02 0.98 -70.3 0 0 352.25 238.23
  C 353.23 239.20 352.56 240.50 352.60 241.29
  C 353.63 262.76 351.32 286.83 342.91 306.75
  Q 340.09 313.44 337.06 320.01
  A 1.00 1.00 0.0 0 1 335.58 320.41
  Q 323.42 311.97 308.36 311.87
  A 1.00 1.00 0.0 0 1 307.37 310.78
  Q 308.56 297.77 297.95 294.94
  C 288.92 292.53 285.10 304.54 283.76 310.73
  A 1.01 1.00 0.4 0 1 282.97 311.50
  Q 281.60 311.76 280.20 311.78
  C 274.60 311.86 269.20 315.45 266.98 320.27
  Q 265.99 322.42 266.61 326.31
  A 0.99 0.99 0.0 0 1 265.78 327.45
  Q 261.13 328.19 257.08 330.51
  C 256.04 331.11 254.41 332.96 255.97 333.74
  Q 257.31 334.42 258.82 334.44
  Q 291.03 334.76 321.09 330.35
  C 323.91 329.94 326.75 329.11 329.52 328.38
  Q 332.90 327.49 330.50 330.03
  C 326.80 333.96 323.76 338.75 320.04 342.26
  Q 313.64 348.27 306.57 353.49
  C 305.77 354.08 305.00 355.40 304.45 355.70
  C 302.25 356.90 292.69 363.23 291.03 363.03
  A 1.07 1.02 -53.6 0 0 290.47 363.13
  Q 280.53 367.99 278.20 368.71
  Q 268.38 371.75 258.72 375.22
  C 247.44 379.27 236.80 379.98 226.15 381.61
  Q 216.33 383.12 207.78 383.63
  Q 178.82 385.34 149.81 384.88
  C 126.49 384.51 100.72 381.76 80.35 370.41
  C 72.21 365.86 62.25 357.52 56.07 351.93
  Q 54.14 350.18 54.45 347.03
  A 1.01 0.99 87.7 0 1 55.25 346.15
  Q 83.49 340.53 111.74 335.03
  Q 114.49 334.49 117.25 334.99
  Q 150.50 341.05 183.81 346.87
  A 0.97 0.95 33.3 0 0 184.51 346.73
  Q 186.65 345.40 190.75 343.49
  Q 217.44 331.08 244.28 318.48
  A 1.01 0.99 72.8 0 0 244.84 317.40
  Q 242.86 306.32 241.19 294.91
  C 239.17 281.11 235.70 265.57 234.30 250.62
  Q 237.79 249.36 239.60 246.13
  A 0.65 0.63 39.0 0 0 239.51 245.38
  L 239.31 245.17
  A 0.52 0.51 -44.6 0 0 238.56 245.17
  L 234.04 250.00
  Q 231.35 236.39 229.68 222.62
  A 0.21 0.21 0.0 0 0 229.62 222.50
  L 229.44 222.32
  A 0.69 0.63 22.8 0 1 229.26 221.93
  Q 228.06 209.61 225.63 197.48
  A 1.00 1.00 0.0 0 0 224.21 196.78
  L 170.61 222.89
  A 0.98 0.97 36.2 0 1 170.02 222.98
  L 107.29 212.89
  Q 107.07 212.85 106.85 212.91
  L 39.86 232.04
  A 1.01 1.00 84.5 0 0 39.14 232.92
  Q 38.80 236.82 39.31 242.69
  Q 39.91 249.53 39.71 262.58
  C 39.41 281.70 40.03 303.85 40.50 319.25
  Q 40.63 323.57 40.21 326.50
  Q 39.61 327.05 39.26 326.20
  Q 28.96 301.25 27.40 275.56
  C 24.67 230.88 34.54 186.46 68.13 154.15
  C 75.05 154.19 187.38 152.94 176.33 136.69
  C 172.63 131.24 159.42 132.51 153.74 133.27
  A 1.01 1.01 0.0 0 1 152.66 132.60
  Q 150.63 126.60 145.97 121.23
  Q 197.02 112.68 246.75 120.99
  C 271.50 125.13 295.52 135.65 314.43 152.19
  Z"
/>
<g stroke-width="2.00" fill="none" stroke-linecap="butt">
<path stroke="#72280d" vector-effect="non-scaling-stroke" d="
  M 322.00 189.71
  Q 316.98 192.69 313.36 197.23
  Q 310.64 200.65 314.58 198.75
  Q 321.50 195.42 327.38 190.47"
/>
<path stroke="#f1a78c" vector-effect="non-scaling-stroke" d="
  M 303.05 216.47
  Q 294.23 221.33 286.23 226.89"
/>
<path stroke="#f1a78c" vector-effect="non-scaling-stroke" d="
  M 257.50 242.79
  Q 252.71 241.77 247.86 243.62"
/>
<path stroke="#f1a78c" vector-effect="non-scaling-stroke" d="
  M 275.11 215.09
  Q 283.03 210.35 290.25 204.29"
/>
</g>
<path fill="#ffffff" d="
  M 367.00 147.63
  L 367.00 150.81
  C 363.31 150.02 354.22 148.89 350.98 151.00
  A 1.01 1.00 43.6 0 1 349.92 151.02
  L 348.04 149.90
  A 1.00 0.99 44.3 0 0 346.99 149.91
  Q 343.47 152.16 339.55 151.02
  A 0.98 0.96 -49.7 0 0 338.83 151.09
  C 335.65 152.67 331.85 150.89 329.23 153.58
  A 1.01 0.98 19.2 0 1 328.59 153.88
  L 327.27 153.99
  A 0.99 0.99 0.0 0 0 326.35 154.99
  L 326.37 159.22
  A 0.99 0.99 0.0 0 0 327.28 160.21
  Q 328.59 160.32 329.66 159.46
  A 1.00 0.98 -24.7 0 0 330.02 158.52
  Q 329.87 157.65 330.10 156.86
  A 1.00 1.00 0.0 0 1 331.54 156.26
  C 333.72 157.43 336.22 162.21 331.14 161.87
  Q 330.14 161.81 329.17 162.13
  A 1.00 1.00 0.0 0 0 328.74 163.74
  Q 329.86 165.02 331.04 166.25
  C 333.56 168.92 334.96 172.21 337.68 174.93
  A 0.99 0.97 -71.2 0 1 337.96 175.51
  Q 338.59 180.37 343.24 179.86
  A 0.98 0.98 0.0 0 1 344.07 180.16
  C 346.36 182.53 341.25 190.46 345.56 192.38
  A 1.01 1.01 0.0 0 1 346.14 193.13
  L 346.49 195.28
  A 0.96 0.90 -71.4 0 0 346.72 195.78
  C 348.06 197.30 347.91 199.26 348.35 200.70
  Q 352.80 215.20 353.73 225.50
  C 354.59 234.90 356.03 244.53 356.07 253.54
  Q 356.11 264.51 355.41 275.47
  C 355.21 278.60 352.78 280.37 352.63 283.93
  Q 352.29 292.30 351.08 295.06
  Q 345.72 307.35 340.14 319.54
  A 0.98 0.94 -36.3 0 0 340.05 320.06
  C 340.45 323.94 333.24 330.34 330.18 333.30
  C 328.34 335.08 327.42 337.33 326.25 339.54
  C 324.69 342.47 322.23 344.29 320.24 347.06
  C 318.12 350.01 314.97 351.30 311.92 352.92
  C 308.63 354.67 309.54 360.01 303.64 360.01
  A 1.06 0.99 -60.1 0 0 303.08 360.18
  L 300.04 362.20
  A 1.01 1.01 0.0 0 0 299.60 363.12
  C 299.65 363.78 300.19 365.33 299.15 365.52
  A 0.63 0.62 61.4 0 1 298.58 365.35
  Q 295.67 362.41 293.36 365.58
  A 1.00 1.00 0.0 0 1 292.42 365.98
  Q 288.21 365.44 285.97 369.05
  A 0.99 0.99 0.0 0 1 285.28 369.51
  Q 273.07 371.51 261.71 376.44
  C 256.73 378.60 252.29 380.79 246.89 381.82
  Q 242.30 382.69 237.70 383.49
  C 233.84 384.17 229.10 384.01 224.80 384.88
  C 219.62 385.92 214.49 386.33 209.52 387.89
  A 1.01 1.00 62.5 0 1 208.42 387.54
  L 207.44 386.26
  A 1.02 0.99 -17.5 0 0 206.66 385.87
  Q 202.13 385.81 205.83 388.81
  A 0.33 0.32 -56.7 0 1 205.91 389.23
  C 205.69 389.60 200.17 387.98 199.16 387.99
  C 180.63 388.03 161.34 388.94 143.04 387.03
  Q 131.21 385.80 113.94 383.51
  C 103.03 382.06 92.84 380.29 83.64 374.83
  Q 79.23 372.22 74.79 369.63
  C 71.26 367.58 69.70 365.44 66.90 362.35
  Q 62.02 356.97 54.19 355.19
  A 1.00 1.00 0.0 0 1 53.50 353.82
  Q 54.16 352.29 52.99 350.89
  A 1.03 1.02 -55.8 0 1 52.81 349.93
  Q 53.92 346.64 52.21 343.65
  A 1.01 1.00 53.2 0 1 52.38 342.43
  C 54.07 340.82 59.86 344.09 57.75 338.69
  A 1.01 1.01 0.0 0 0 56.83 338.06
  L 51.11 337.98
  A 1.01 1.00 -12.4 0 1 50.22 337.42
  C 48.30 333.54 46.88 328.83 49.09 324.73
  A 1.00 1.00 0.0 0 0 48.51 323.30
  C 43.07 321.59 47.87 317.40 47.91 314.94
  C 48.32 291.44 47.33 268.04 47.23 244.57
  Q 47.23 244.30 47.36 244.08
  Q 49.37 240.46 44.53 239.79
  A 1.00 1.00 0.0 0 0 43.39 240.85
  C 44.13 250.82 44.93 262.40 42.88 272.28
  Q 42.12 275.92 42.79 279.69
  A 0.65 0.65 0.0 0 1 42.59 280.28
  L 42.35 280.50
  A 0.64 0.64 0.0 0 0 42.48 281.54
  Q 44.00 282.33 44.00 284.31
  Q 44.03 307.15 43.99 330.01
  Q 43.99 332.82 40.23 331.99
  Q 37.15 331.32 38.17 334.53
  A 1.00 1.00 0.0 0 1 37.27 335.83
  L 31.45 336.14
  A 1.01 1.01 0.0 0 0 30.57 336.79
  C 28.53 342.21 25.23 340.81 21.24 343.09
  Q 13.02 347.78 3.80 350.32
  Q 7.08 348.72 23.03 340.28
  C 27.20 338.07 30.73 335.03 33.99 332.94
  C 35.99 331.66 40.60 328.75 40.21 326.50
  Q 40.63 323.57 40.50 319.25
  C 40.03 303.85 39.41 281.70 39.71 262.58
  Q 39.91 249.53 39.31 242.69
  Q 38.80 236.82 39.14 232.92
  A 1.01 1.00 84.5 0 1 39.86 232.04
  L 106.85 212.91
  Q 107.07 212.85 107.29 212.89
  L 170.02 222.98
  A 0.98 0.97 36.2 0 0 170.61 222.89
  L 224.21 196.78
  A 1.00 1.00 0.0 0 1 225.63 197.48
  Q 228.06 209.61 229.26 221.93
  A 0.69 0.63 22.8 0 0 229.44 222.32
  L 229.62 222.50
  A 0.21 0.21 0.0 0 1 229.68 222.62
  Q 231.35 236.39 234.04 250.00
  L 234.30 250.62
  C 235.70 265.57 239.17 281.11 241.19 294.91
  Q 242.86 306.32 244.84 317.40
  A 1.01 0.99 72.8 0 1 244.28 318.48
  Q 217.44 331.08 190.75 343.49
  Q 186.65 345.40 184.51 346.73
  A 0.97 0.95 33.3 0 1 183.81 346.87
  Q 150.50 341.05 117.25 334.99
  Q 114.49 334.49 111.74 335.03
  Q 83.49 340.53 55.25 346.15
  A 1.01 0.99 87.7 0 0 54.45 347.03
  Q 54.14 350.18 56.07 351.93
  C 62.25 357.52 72.21 365.86 80.35 370.41
  C 100.72 381.76 126.49 384.51 149.81 384.88
  Q 178.82 385.34 207.78 383.63
  Q 216.33 383.12 226.15 381.61
  C 236.80 379.98 247.44 379.27 258.72 375.22
  Q 268.38 371.75 278.20 368.71
  Q 280.53 367.99 290.47 363.13
  A 1.07 1.02 -53.6 0 1 291.03 363.03
  C 292.69 363.23 302.25 356.90 304.45 355.70
  C 305.00 355.40 305.77 354.08 306.57 353.49
  Q 313.64 348.27 320.04 342.26
  C 323.76 338.75 326.80 333.96 330.50 330.03
  Q 332.90 327.49 329.52 328.38
  C 326.75 329.11 323.91 329.94 321.09 330.35
  Q 291.03 334.76 258.82 334.44
  Q 257.31 334.42 255.97 333.74
  C 254.41 332.96 256.04 331.11 257.08 330.51
  Q 261.13 328.19 265.78 327.45
  A 0.99 0.99 0.0 0 0 266.61 326.31
  Q 265.99 322.42 266.98 320.27
  C 269.20 315.45 274.60 311.86 280.20 311.78
  Q 281.60 311.76 282.97 311.50
  A 1.01 1.00 0.4 0 0 283.76 310.73
  C 285.10 304.54 288.92 292.53 297.95 294.94
  Q 308.56 297.77 307.37 310.78
  A 1.00 1.00 0.0 0 0 308.36 311.87
  Q 323.42 311.97 335.58 320.41
  A 1.00 1.00 0.0 0 0 337.06 320.01
  Q 340.09 313.44 342.91 306.75
  C 351.32 286.83 353.63 262.76 352.60 241.29
  C 352.56 240.50 353.23 239.20 352.25 238.23
  A 1.02 0.98 -70.3 0 1 351.95 237.56
  Q 351.21 219.80 345.83 202.93
  C 345.36 201.46 339.24 184.05 338.08 183.56
  A 1.04 1.02 87.0 0 1 337.59 183.11
  Q 328.40 165.95 314.43 152.19
  Q 322.38 150.40 330.46 149.66
  Q 342.21 148.59 342.52 148.56
  Q 354.71 147.33 367.00 147.63
  Z
  M 69.64 230.29
  L 65.51 228.15
  A 0.99 0.98 -45.3 0 0 64.57 228.16
  C 63.62 228.68 58.27 230.57 58.26 231.12
  A 0.64 0.63 -87.7 0 0 58.86 231.78
  L 64.58 232.11
  Q 64.78 232.12 64.96 232.20
  Q 67.46 233.40 69.70 232.03
  Q 71.21 231.11 69.64 230.29
  Z
  M 48.29 233.25
  Q 47.79 232.72 47.08 232.57
  A 1.02 1.02 0.0 0 0 46.20 232.81
  L 42.58 236.11
  A 0.96 0.92 76.8 0 0 42.30 236.58
  C 41.78 238.43 44.19 240.57 45.15 238.51
  A 1.00 0.99 12.7 0 1 46.07 237.93
  L 50.50 237.99
  A 1.01 1.00 -68.8 0 0 51.28 237.64
  L 53.14 235.44
  A 1.01 1.00 19.4 0 1 53.88 235.09
  Q 56.51 235.02 57.96 233.00
  A 1.01 1.00 -44.1 0 0 57.98 231.85
  Q 56.93 230.31 55.07 230.20
  A 1.00 1.00 0.0 0 0 54.16 230.66
  Q 53.20 232.18 51.37 231.99
  A 1.04 1.02 -66.8 0 0 50.49 232.35
  L 49.79 233.21
  A 1.00 1.00 0.0 0 1 48.29 233.25
  Z"
/>
<g stroke-width="2.00" fill="none" stroke-linecap="butt">
<path stroke="#62a9a0" vector-effect="non-scaling-stroke" d="
  M 221.71 242.00
  C 209.92 238.25 200.28 233.60 192.50 223.79"
/>
<path stroke="#6f92b2" vector-effect="non-scaling-stroke" d="
  M 224.95 259.25
  Q 221.77 262.79 217.37 266.78
  C 216.93 267.17 215.50 268.90 216.87 268.87
  A 0.98 0.94 23.4 0 0 217.51 268.63
  L 224.21 262.75"
/>
<path stroke="#62a9a0" vector-effect="non-scaling-stroke" d="
  M 226.89 280.73
  C 220.62 278.55 211.35 277.53 209.22 285.49
  Q 208.48 288.27 208.50 291.15
  Q 208.57 299.22 208.39 308.43
  C 208.13 321.83 195.58 314.29 188.98 313.66
  Q 184.08 313.19 180.96 308.81"
/>
<path stroke="#6f92b2" vector-effect="non-scaling-stroke" d="
  M 179.79 295.50
  L 186.35 291.79
  A 0.64 0.64 0.0 0 0 186.47 290.76
  L 186.20 290.52
  A 1.00 1.00 0.0 0 0 185.04 290.38
  L 180.00 293.21"
/>
<path stroke="#62a9a0" vector-effect="non-scaling-stroke" d="
  M 179.50 291.79
  C 182.08 290.33 184.87 289.12 186.87 286.99
  C 192.74 280.75 198.16 268.28 193.07 260.23
  C 189.25 254.17 180.81 252.25 174.80 257.29"
/>
<path stroke="#62a9a0" vector-effect="non-scaling-stroke" d="
  M 147.44 229.65
  Q 133.21 242.71 120.09 256.68
  C 117.31 259.63 114.64 260.89 110.79 260.25"
/>
<path stroke="#62a9a0" vector-effect="non-scaling-stroke" d="
  M 173.13 258.91
  C 170.28 261.12 168.31 262.78 164.45 262.75
  C 153.56 262.66 138.97 264.64 139.75 279.15
  A 1.01 1.01 0.0 0 0 139.97 279.72
  C 143.80 284.49 147.65 285.54 154.21 287.69
  Q 164.62 291.10 175.45 292.83"
/>
<path stroke="#4e6580" vector-effect="non-scaling-stroke" d="
  M 175.29 294.75
  Q 173.36 297.77 176.46 297.00"
/>
<path stroke="#62a9a0" vector-effect="non-scaling-stroke" d="
  M 177.78 305.21
  C 157.24 298.29 148.26 309.56 145.71 328.90"
/>
<path stroke="#62a9a0" vector-effect="non-scaling-stroke" d="
  M 108.55 260.78
  Q 101.21 259.42 95.95 255.05
  Q 95.75 254.89 95.49 254.84
  C 85.15 252.95 80.93 241.57 77.56 232.45"
/>
<path stroke="#4e6580" vector-effect="non-scaling-stroke" d="
  M 110.74 293.89
  Q 104.95 294.56 99.85 297.19
  C 98.39 297.94 99.91 298.44 100.65 298.15
  Q 105.54 296.25 110.71 295.25"
/>
<path stroke="#62a9a0" vector-effect="non-scaling-stroke" d="
  M 109.75 323.96
  C 102.52 312.77 92.49 316.05 82.66 310.13"
/>
<path stroke="#4e6580" vector-effect="non-scaling-stroke" d="
  M 82.66 310.13
  C 83.11 309.70 90.39 304.01 88.90 303.78
  A 0.65 0.64 32.6 0 0 88.44 303.88
  L 80.76 309.08"
/>
<path stroke="#62a9a0" vector-effect="non-scaling-stroke" d="
  M 80.76 309.08
  C 77.67 304.89 74.57 299.86 70.68 297.00
  Q 61.99 290.61 50.54 293.25"
/>
<path stroke="#154521" vector-effect="non-scaling-stroke" d="
  M 80.76 309.08
  Q 79.94 309.57 79.45 310.36
  Q 77.61 313.32 80.56 311.45
  L 82.66 310.13"
/>
</g>
<path fill="#ffffff" d="
  M 192.34 174.13
  A 1.00 0.99 22.9 0 0 193.42 173.70
  C 196.80 168.37 202.97 161.25 208.90 159.34
  C 218.88 156.11 220.83 168.52 223.03 174.95
  A 1.02 1.02 0.0 0 0 223.88 175.63
  C 228.67 176.08 248.34 178.99 250.22 183.74
  A 1.01 1.01 0.0 0 1 249.52 185.09
  C 239.22 187.50 230.10 187.77 215.04 188.62
  Q 205.42 189.16 195.06 189.19
  C 185.18 189.22 175.02 189.77 165.20 188.79
  A 1.01 1.00 -81.2 0 1 164.32 187.58
  C 165.64 181.42 169.28 177.15 175.30 174.95
  Q 183.42 171.99 192.34 174.13
  Z"
/>
<path fill="#e34e18" d="
  M 322.00 189.71
  Q 316.98 192.69 313.36 197.23
  Q 310.64 200.65 314.58 198.75
  Q 321.50 195.42 327.38 190.47
  Q 330.48 191.04 333.22 193.26
  A 0.99 0.99 0.0 0 1 333.36 194.66
  C 331.66 196.77 329.78 198.65 327.45 200.26
  Q 315.36 208.59 303.05 216.47
  Q 294.23 221.33 286.23 226.89
  Q 272.67 234.56 259.44 242.44
  Q 258.90 242.76 257.50 242.79
  Q 252.71 241.77 247.86 243.62
  Q 241.98 237.29 238.97 229.58
  Q 237.98 227.04 240.38 228.34
  Q 245.42 231.06 249.51 235.10
  A 1.01 0.99 -42.5 0 0 250.85 235.15
  Q 261.90 226.01 273.20 217.20
  Q 273.81 216.73 275.11 215.09
  Q 283.03 210.35 290.25 204.29
  C 299.21 197.98 310.98 187.75 322.00 189.71
  Z"
/>
<path fill="#010101" d="
  M 322.00 189.71
  L 327.38 190.47
  Q 321.50 195.42 314.58 198.75
  Q 310.64 200.65 313.36 197.23
  Q 316.98 192.69 322.00 189.71
  Z"
/>
<path fill="#ffffff" d="
  M 290.25 204.29
  Q 283.03 210.35 275.11 215.09
  C 271.00 214.52 244.69 210.94 245.52 205.78
  A 1.00 0.99 -88.1 0 1 246.41 204.94
  Q 268.59 202.94 290.25 204.29
  Z"
/>
<path fill="#298940" d="
  M 221.71 242.00
  C 209.92 238.25 200.28 233.60 192.50 223.79
  L 216.47 212.81
  A 1.00 0.99 -17.3 0 1 217.87 213.54
  Q 220.34 227.71 221.71 242.00
  Z"
/>
<path fill="#ffffff" d="
  M 303.05 216.47
  Q 302.28 220.17 301.33 223.84
  C 300.61 226.57 300.47 229.71 299.64 232.64
  C 298.81 235.54 298.91 238.47 297.93 241.39
  A 1.00 1.00 0.0 0 1 297.48 241.94
  C 296.20 242.67 296.59 243.99 296.31 245.00
  Q 292.76 257.60 286.61 265.07
  C 283.89 268.37 282.65 265.47 282.84 262.96
  Q 284.17 245.03 286.23 226.89
  Q 294.23 221.33 303.05 216.47
  Z"
/>
<path fill="#298940" d="
  M 147.44 229.65
  Q 133.21 242.71 120.09 256.68
  C 117.31 259.63 114.64 260.89 110.79 260.25
  Q 109.20 242.61 108.61 224.89
  A 1.00 1.00 0.0 0 1 109.74 223.86
  Q 128.39 226.22 147.44 229.65
  Z"
/>
<path fill="#9bc9ff" d="
  M 192.50 223.79
  C 200.28 233.60 209.92 238.25 221.71 242.00
  L 224.95 259.25
  Q 221.77 262.79 217.37 266.78
  C 216.93 267.17 215.50 268.90 216.87 268.87
  A 0.98 0.94 23.4 0 0 217.51 268.63
  L 224.21 262.75
  Q 226.70 271.55 226.89 280.73
  C 220.62 278.55 211.35 277.53 209.22 285.49
  Q 208.48 288.27 208.50 291.15
  Q 208.57 299.22 208.39 308.43
  C 208.13 321.83 195.58 314.29 188.98 313.66
  Q 184.08 313.19 180.96 308.81
  Q 179.36 302.52 179.79 295.50
  L 186.35 291.79
  A 0.64 0.64 0.0 0 0 186.47 290.76
  L 186.20 290.52
  A 1.00 1.00 0.0 0 0 185.04 290.38
  L 180.00 293.21
  L 179.50 291.79
  C 182.08 290.33 184.87 289.12 186.87 286.99
  C 192.74 280.75 198.16 268.28 193.07 260.23
  C 189.25 254.17 180.81 252.25 174.80 257.29
  L 172.00 233.82
  A 1.00 0.99 74.4 0 1 172.58 232.79
  L 192.50 223.79
  Z"
/>
<path fill="#298940" d="
  M 108.55 260.78
  Q 101.21 259.42 95.95 255.05
  Q 95.75 254.89 95.49 254.84
  C 85.15 252.95 80.93 241.57 77.56 232.45
  L 105.56 224.81
  A 1.01 0.99 80.7 0 1 106.82 225.73
  L 108.55 260.78
  Z"
/>
<path fill="#9bc9ff" d="
  M 147.44 229.65
  Q 158.49 230.58 169.83 232.75
  A 1.00 1.00 0.0 0 1 170.64 233.64
  L 173.13 258.91
  C 170.28 261.12 168.31 262.78 164.45 262.75
  C 153.56 262.66 138.97 264.64 139.75 279.15
  A 1.01 1.01 0.0 0 0 139.97 279.72
  C 143.80 284.49 147.65 285.54 154.21 287.69
  Q 164.62 291.10 175.45 292.83
  Q 174.71 293.24 175.29 294.75
  Q 173.36 297.77 176.46 297.00
  Q 178.57 300.97 177.78 305.21
  C 157.24 298.29 148.26 309.56 145.71 328.90
  L 115.16 323.98
  A 0.99 0.99 0.0 0 1 114.33 323.09
  C 113.15 310.90 112.87 297.46 112.12 286.50
  Q 111.23 273.38 110.79 260.25
  C 114.64 260.89 117.31 259.63 120.09 256.68
  Q 133.21 242.71 147.44 229.65
  Z"
/>
<path fill="#9bc9ff" d="
  M 77.56 232.45
  C 80.93 241.57 85.15 252.95 95.49 254.84
  Q 95.75 254.89 95.95 255.05
  Q 101.21 259.42 108.55 260.78
  Q 110.55 277.24 110.74 293.89
  Q 104.95 294.56 99.85 297.19
  C 98.39 297.94 99.91 298.44 100.65 298.15
  Q 105.54 296.25 110.71 295.25
  L 112.53 322.77
  A 1.00 1.00 0.0 0 1 112.03 323.70
  Q 111.03 324.28 109.75 323.96
  C 102.52 312.77 92.49 316.05 82.66 310.13
  C 83.11 309.70 90.39 304.01 88.90 303.78
  A 0.65 0.64 32.6 0 0 88.44 303.88
  L 80.76 309.08
  C 77.67 304.89 74.57 299.86 70.68 297.00
  Q 61.99 290.61 50.54 293.25
  Q 49.33 267.01 49.74 240.75
  A 1.01 1.00 -7.4 0 1 50.48 239.80
  L 77.56 232.45
  Z"
/>
<path fill="#ffffff" d="
  M 257.50 242.79
  L 257.76 243.02
  A 0.40 0.40 0.0 0 1 257.80 243.59
  L 248.28 254.72
  Q 246.63 256.65 246.52 254.12
  Q 246.28 248.65 247.86 243.62
  Q 252.71 241.77 257.50 242.79
  Z"
/>
<path fill="#010101" d="
  M 234.30 250.62
  L 234.04 250.00
  L 238.56 245.17
  A 0.52 0.51 -44.6 0 1 239.31 245.17
  L 239.51 245.38
  A 0.65 0.63 39.0 0 1 239.60 246.13
  Q 237.79 249.36 234.30 250.62
  Z"
/>
<path fill="#298940" d="
  M 179.50 291.79
  C 177.98 291.81 175.23 260.72 174.80 257.29
  C 180.81 252.25 189.25 254.17 193.07 260.23
  C 198.16 268.28 192.74 280.75 186.87 286.99
  C 184.87 289.12 182.08 290.33 179.50 291.79
  Z"
/>
<path fill="#298940" d="
  M 173.13 258.91
  Q 175.02 274.84 176.48 290.75
  Q 176.63 292.34 175.45 292.83
  Q 164.62 291.10 154.21 287.69
  C 147.65 285.54 143.80 284.49 139.97 279.72
  A 1.01 1.01 0.0 0 1 139.75 279.15
  C 138.97 264.64 153.56 262.66 164.45 262.75
  C 168.31 262.78 170.28 261.12 173.13 258.91
  Z"
/>
<path fill="#435b64" d="
  M 224.95 259.25
  C 228.51 258.25 224.91 261.96 224.21 262.75
  L 217.51 268.63
  A 0.98 0.94 23.4 0 1 216.87 268.87
  C 215.50 268.90 216.93 267.17 217.37 266.78
  Q 221.77 262.79 224.95 259.25
  Z"
/>
<path fill="#298940" d="
  M 80.60 282.18
  Q 77.00 279.59 76.68 274.68
  A 1.03 1.00 -24.0 0 1 77.00 273.88
  C 93.65 258.39 113.14 287.75 98.20 289.56
  C 93.16 290.17 84.63 285.06 80.60 282.18
  Z"
/>
<rect fill="#010101" x="-6.96" y="-0.67" transform="translate(202.13,280.39) rotate(-37.8)" width="13.92" height="1.34" rx="0.62"/>
<path fill="#298940" d="
  M 226.89 280.73
  Q 229.69 295.37 231.30 310.24
  A 1.01 1.00 74.7 0 1 230.73 311.25
  L 184.14 333.01
  A 1.00 1.00 0.0 0 1 182.72 332.21
  Q 181.74 322.99 180.86 313.94
  Q 180.59 311.15 180.96 308.81
  Q 184.08 313.19 188.98 313.66
  C 195.58 314.29 208.13 321.83 208.39 308.43
  Q 208.57 299.22 208.50 291.15
  Q 208.48 288.27 209.22 285.49
  C 211.35 277.53 220.62 278.55 226.89 280.73
  Z"
/>
<path fill="#435b64" d="
  M 179.79 295.50
  Q 178.60 294.23 180.00 293.21
  L 185.04 290.38
  A 1.00 1.00 0.0 0 1 186.20 290.52
  L 186.47 290.76
  A 0.64 0.64 0.0 0 1 186.35 291.79
  L 179.79 295.50
  Z"
/>
<path fill="#298940" d="
  M 80.76 309.08
  Q 79.94 309.57 79.45 310.36
  Q 77.61 313.32 80.56 311.45
  L 82.66 310.13
  C 92.49 316.05 102.52 312.77 109.75 323.96
  Q 105.15 325.11 92.81 327.33
  Q 72.84 330.93 52.27 334.59
  A 0.99 0.99 0.0 0 1 51.10 333.62
  L 50.54 293.25
  Q 61.99 290.61 70.68 297.00
  C 74.57 299.86 77.67 304.89 80.76 309.08
  Z"
/>
<rect fill="#435b64" x="-6.72" y="-0.80" transform="translate(130.95,294.54) rotate(7.5)" width="13.44" height="1.60" rx="0.61"/>
<path fill="#010101" d="
  M 110.74 293.89
  L 110.71 295.25
  Q 105.54 296.25 100.65 298.15
  C 99.91 298.44 98.39 297.94 99.85 297.19
  Q 104.95 294.56 110.74 293.89
  Z"
/>
<path fill="#010101" d="
  M 175.29 294.75
  Q 177.11 294.95 176.46 297.00
  Q 173.36 297.77 175.29 294.75
  Z"
/>
<rect fill="#435b64" x="-6.94" y="-0.71" transform="translate(156.11,298.67) rotate(6.1)" width="13.88" height="1.42" rx="0.26"/>
<path fill="#298940" d="
  M 177.78 305.21
  L 181.45 333.51
  A 1.00 0.99 0.9 0 1 180.30 334.62
  L 145.71 328.90
  C 148.26 309.56 157.24 298.29 177.78 305.21
  Z"
/>
<path fill="#010101" d="
  M 82.66 310.13
  L 80.56 311.45
  Q 77.61 313.32 79.45 310.36
  Q 79.94 309.57 80.76 309.08
  L 88.44 303.88
  A 0.65 0.64 32.6 0 1 88.90 303.78
  C 90.39 304.01 83.11 309.70 82.66 310.13
  Z"
/>
<ellipse fill="#010101" cx="0.00" cy="0.00" transform="translate(67.47,323.10) rotate(134.8)" rx="3.35" ry="0.62"/>
</svg>
