<?xml version="1.0" encoding="UTF-8" standalone="no"?>
<!DOCTYPE svg PUBLIC "-//W3C//DTD SVG 1.1//EN" "http://www.w3.org/Graphics/SVG/1.1/DTD/svg11.dtd">
<svg xmlns="http://www.w3.org/2000/svg" version="1.1" viewBox="0 0 369 437">
<g stroke-width="2.00" fill="none" stroke-linecap="butt">
<path stroke="#5f9cea" vector-effect="non-scaling-stroke" d="
  M 358.04 274.50
  Q 352.40 256.27 338.75 243.04"
/>
<path stroke="#deedff" vector-effect="non-scaling-stroke" d="
  M 338.75 243.04
  L 340.75 241.24
  A 0.99 0.99 0.0 0 1 341.24 241.00
  Q 347.52 239.90 350.19 235.44
  C 351.77 232.81 348.95 226.87 345.46 227.75"
/>
<path stroke="#5f9cea" vector-effect="non-scaling-stroke" d="
  M 300.80 214.19
  Q 286.43 203.50 276.10 188.87
  C 259.95 165.98 246.50 142.06 216.24 136.51
  C 188.88 131.48 159.85 141.14 143.25 164.26
  Q 132.05 179.85 123.65 197.96"
/>
<path stroke="#80aeea" vector-effect="non-scaling-stroke" d="
  M 333.85 242.93
  Q 335.39 243.32 337.23 242.61
  A 0.99 0.97 48.5 0 1 338.07 242.67
  L 338.75 243.04"
/>
<path stroke="#5f9cea" vector-effect="non-scaling-stroke" d="
  M 361.04 311.00
  Q 360.14 311.89 360.00 312.75
  Q 356.38 335.17 341.50 352.21"
/>
<path stroke="#15738b" vector-effect="non-scaling-stroke" d="
  M 338.55 352.88
  Q 343.20 341.28 343.92 328.98
  Q 344.16 324.87 342.99 322.67
  C 336.97 311.42 318.16 345.26 315.51 349.52
  C 315.28 349.88 314.69 349.95 314.83 349.31
  C 316.00 343.81 320.83 312.34 315.25 310.11
  Q 312.22 308.91 310.83 311.86
  C 304.81 324.65 303.05 340.75 301.69 354.69
  Q 301.61 355.47 300.89 355.30
  A 0.66 0.66 0.0 0 1 300.46 354.94
  C 297.84 349.27 293.03 339.16 286.65 337.09
  A 1.01 1.00 -71.1 0 0 285.40 337.71
  C 283.08 344.29 287.55 358.11 290.10 364.54
  A 1.00 0.99 71.2 0 1 289.45 365.87
  L 280.62 368.37
  A 1.00 1.00 0.0 0 0 279.91 369.52
  Q 281.72 379.01 288.29 384.27"
/>
<path stroke="#7f8fb9" vector-effect="non-scaling-stroke" d="
  M 268.49 391.50
  Q 268.08 387.31 269.21 383.37
  Q 270.17 380.02 270.29 378.01
  Q 271.27 361.45 273.67 345.01"
/>
<path stroke="#788d6b" vector-effect="non-scaling-stroke" d="
  M 273.67 345.01
  Q 272.52 317.89 262.95 295.04
  Q 252.79 270.80 226.23 268.53"
/>
<path stroke="#80aeea" vector-effect="non-scaling-stroke" d="
  M 226.23 268.53
  Q 220.66 266.65 215.50 266.29"
/>
<path stroke="#7f8fb9" vector-effect="non-scaling-stroke" d="
  M 215.50 266.29
  Q 215.21 266.34 215.02 266.25
  A 0.41 0.41 0.0 0 1 214.78 265.85
  L 215.57 255.89"
/>
<path stroke="#4f5e8a" vector-effect="non-scaling-stroke" d="
  M 215.57 255.89
  Q 223.37 253.72 226.89 247.89
  Q 229.05 244.31 229.03 238.45
  A 1.01 1.00 -7.5 0 1 229.78 237.48
  L 231.38 237.06"
/>
<path stroke="#6f597d" vector-effect="non-scaling-stroke" d="
  M 231.38 237.06
  Q 242.38 236.56 250.72 230.01
  A 1.01 0.97 76.3 0 0 251.09 229.37
  C 252.63 219.16 243.69 212.28 234.78 210.19
  Q 233.05 209.79 230.95 207.65"
/>
<path stroke="#788d6b" vector-effect="non-scaling-stroke" d="
  M 230.95 207.65
  Q 229.54 197.50 224.45 191.29
  C 215.76 180.70 191.40 177.01 179.48 184.02
  C 172.39 188.19 169.91 194.67 166.00 201.46"
/>
<path stroke="#6f597d" vector-effect="non-scaling-stroke" d="
  M 166.00 201.46
  C 158.95 202.00 138.94 206.00 139.47 216.17
  C 139.94 225.30 156.38 228.64 163.19 230.16
  C 165.79 230.74 167.40 231.95 167.02 234.75
  Q 166.17 241.08 168.29 246.55"
/>
<path stroke="#7f8fb9" vector-effect="non-scaling-stroke" d="
  M 168.29 246.55
  Q 169.62 254.26 177.19 257.31
  Q 181.43 259.01 185.04 259.04
  A 1.01 1.00 88.1 0 1 186.03 259.97
  Q 186.34 264.11 185.47 268.02"
/>
<path stroke="#80aeea" vector-effect="non-scaling-stroke" d="
  M 185.47 268.02
  L 177.47 268.58"
/>
<path stroke="#7f8fb9" vector-effect="non-scaling-stroke" d="
  M 177.47 268.58
  Q 159.37 268.41 151.30 284.80
  Q 141.52 304.66 135.80 321.02
  C 134.77 323.97 135.25 326.81 134.32 329.56
  Q 133.67 331.50 133.05 333.40
  Q 132.19 336.07 131.52 333.35
  Q 126.11 311.58 122.00 289.54"
/>
<path stroke="#80aeea" vector-effect="non-scaling-stroke" d="
  M 122.00 289.54
  L 143.76 289.57
  Q 146.42 289.57 146.44 286.44
  Q 146.57 263.37 146.55 240.31
  Q 146.54 235.46 142.25 235.49
  Q 128.22 235.60 125.57 235.36
  C 121.03 234.95 118.97 237.30 119.14 241.78
  Q 119.66 255.33 119.37 269.04"
/>
<path stroke="#7f8fb9" vector-effect="non-scaling-stroke" d="
  M 119.37 269.04
  Q 114.87 278.31 113.36 285.07
  C 111.47 293.48 110.18 305.24 110.77 314.36
  C 111.42 324.50 113.12 336.58 117.49 345.86
  C 122.82 357.17 131.69 365.44 142.99 353.74
  C 149.23 347.27 153.28 338.69 156.88 329.76"
/>
<path stroke="#788d6b" vector-effect="non-scaling-stroke" d="
  M 156.88 329.76
  L 162.31 298.48
  A 1.02 0.98 82.5 0 1 162.84 297.76
  Q 163.75 297.30 163.51 298.75
  Q 161.38 311.42 159.24 324.09
  C 158.62 327.81 156.81 331.74 156.27 335.50
  Q 154.41 348.37 153.46 363.65
  Q 153.46 363.74 152.08 380.30
  Q 151.24 390.50 151.89 400.69"
/>
<path stroke="#15738b" vector-effect="non-scaling-stroke" d="
  M 140.25 398.71
  Q 141.46 397.13 143.09 395.98
  C 149.20 391.66 146.40 385.85 139.76 385.47
  Q 131.24 384.97 123.16 387.76
  Q 121.16 388.45 122.20 386.61
  Q 124.08 383.31 125.71 379.86
  C 127.99 375.02 129.34 372.44 130.00 368.23
  Q 130.38 365.82 127.95 365.61
  Q 122.75 365.16 117.29 367.13
  Q 108.72 370.22 100.26 373.64
  Q 98.34 374.42 99.23 372.56
  Q 101.35 368.13 102.54 363.38
  C 103.36 360.09 104.24 357.07 103.55 354.74
  C 99.53 341.01 87.22 365.38 85.88 368.41
  Q 85.79 368.62 85.68 368.75
  Q 84.64 370.02 84.78 368.38
  C 85.42 360.75 88.19 325.58 79.27 320.79
  C 72.67 317.25 68.20 331.05 67.35 335.73
  Q 65.12 347.90 65.53 360.27
  Q 65.67 364.66 63.64 360.77
  Q 59.69 353.20 54.44 345.35
  C 52.57 342.55 46.37 337.05 48.28 346.99
  Q 49.95 355.61 56.58 367.76
  A 1.00 0.99 66.3 0 1 56.03 369.18
  L 55.00 369.54"
/>
<path stroke="#5f9cea" vector-effect="non-scaling-stroke" d="
  M 39.25 282.23
  Q 68.82 281.00 95.32 268.27
  C 99.69 266.17 113.59 257.92 105.18 252.23
  Q 103.54 251.11 101.74 250.80
  Q 94.75 249.60 87.65 250.19
  A 1.00 0.99 79.8 0 1 86.61 249.46
  Q 85.72 246.28 83.50 243.21"
/>
<path stroke="#fee0ce" vector-effect="non-scaling-stroke" d="
  M 122.00 289.54
  Q 120.73 287.22 122.10 285.02
  A 1.06 1.04 3.0 0 1 122.53 284.64
  C 126.64 282.77 135.30 280.10 138.03 276.73
  A 1.00 1.00 0.0 0 0 137.68 275.20
  Q 129.74 271.42 121.01 272.42
  A 1.01 1.01 0.0 0 1 119.89 271.41
  Q 119.91 270.06 119.37 269.04"
/>
<path stroke="#e78a13" vector-effect="non-scaling-stroke" d="
  M 230.95 207.65
  Q 229.44 207.38 227.90 206.89
  C 209.03 200.80 185.64 199.77 166.00 201.46"
/>
<path stroke="#4f301f" vector-effect="non-scaling-stroke" d="
  M 230.50 214.21
  L 230.22 230.74"
/>
<path stroke="#ce906e" vector-effect="non-scaling-stroke" d="
  M 187.65 207.07
  Q 196.63 218.28 208.21 226.19
  A 0.99 0.99 0.0 0 0 209.59 225.93
  Q 212.01 222.44 215.72 223.47
  C 225.33 226.13 216.69 234.56 216.47 239.38
  Q 216.09 247.52 215.57 255.89"
/>
<path stroke="#fee0ce" vector-effect="non-scaling-stroke" d="
  M 215.50 266.29
  L 214.47 266.81
  Q 214.30 266.90 214.18 267.04
  Q 206.25 275.87 196.63 282.78
  A 1.01 1.00 43.1 0 1 195.50 282.81
  C 191.05 279.95 187.18 271.95 185.47 268.02"
/>
<path stroke="#7f614f" vector-effect="non-scaling-stroke" d="
  M 168.46 225.50
  L 169.97 207.17"
/>
<path stroke="#f6c04f" vector-effect="non-scaling-stroke" d="
  M 273.67 345.01
  L 250.25 345.71"
/>
<path stroke="#785f00" vector-effect="non-scaling-stroke" d="
  M 250.25 345.71
  Q 245.21 324.02 240.51 302.25
  Q 240.36 301.52 239.72 301.47
  A 0.51 0.51 0.0 0 0 239.18 302.09
  L 248.75 345.71"
/>
<path stroke="#f6c04f" vector-effect="non-scaling-stroke" d="
  M 248.75 345.71
  Q 247.15 345.77 247.44 347.76
  Q 250.20 366.51 252.31 378.45
  C 253.14 383.14 255.29 391.74 256.07 398.68"
/>
<path stroke="#f6c04f" vector-effect="non-scaling-stroke" d="
  M 156.88 329.76
  Q 147.47 328.06 138.52 324.81
  A 1.03 0.96 -38.7 0 0 138.00 324.77
  Q 135.67 325.19 136.61 323.09
  C 139.58 316.46 142.13 309.92 144.61 304.34
  Q 146.67 299.70 148.46 294.95
  Q 149.63 291.84 157.28 279.46
  Q 159.39 276.04 163.58 273.86
  C 165.49 272.87 174.96 268.33 175.71 270.25"
/>
<path stroke="#f7df80" vector-effect="non-scaling-stroke" d="
  M 226.23 268.53
  Q 216.35 279.36 203.16 285.77
  C 200.43 287.10 197.45 289.23 193.63 289.79
  A 1.00 0.99 -32.7 0 1 192.93 289.64
  C 188.50 286.69 175.24 275.86 175.71 270.25"
/>
<path stroke="#fee0ce" vector-effect="non-scaling-stroke" d="
  M 175.71 270.25
  L 177.47 268.58"
/>
<path stroke="#be5a32" vector-effect="non-scaling-stroke" d="
  M 231.38 237.06
  Q 229.72 234.23 230.22 230.74"
/>
<path stroke="#6f2b13" vector-effect="non-scaling-stroke" d="
  M 230.22 230.74
  Q 238.65 231.37 245.44 228.13
  A 1.01 1.00 73.9 0 0 246.00 227.11
  C 245.10 219.52 236.58 216.58 230.50 214.21"
/>
<path stroke="#be5a32" vector-effect="non-scaling-stroke" d="
  M 230.50 214.21
  Q 222.64 210.71 212.55 209.45
  Q 197.23 207.54 187.65 207.07"
/>
<path stroke="#ee8b61" vector-effect="non-scaling-stroke" d="
  M 187.65 207.07
  Q 178.83 206.20 169.97 207.17"
/>
<path stroke="#6f2b13" vector-effect="non-scaling-stroke" d="
  M 169.97 207.17
  C 161.69 207.49 150.50 208.34 145.37 216.00
  A 0.99 0.99 0.0 0 0 145.32 217.03
  C 148.44 222.76 162.56 224.99 168.46 225.50"
/>
<path stroke="#ee8b61" vector-effect="non-scaling-stroke" d="
  M 168.46 225.50
  L 168.29 246.55"
/>
<path stroke="#7f614f" vector-effect="non-scaling-stroke" d="
  M 250.25 345.71
  L 248.75 345.71"
/>
<path stroke="#808080" vector-effect="non-scaling-stroke" d="
  M 132.1071 241.3070
  A 2.46 2.46 0.0 0 0 129.6730 238.8214
  L 123.7134 238.7590
  A 2.46 2.46 0.0 0 0 121.2277 241.1931
  L 121.2129 242.6130
  A 2.46 2.46 0.0 0 0 123.6470 245.0986
  L 129.6066 245.1610
  A 2.46 2.46 0.0 0 0 132.0923 242.7269
  L 132.1071 241.3070"
/>
<path stroke="#808080" vector-effect="non-scaling-stroke" d="
  M 130.70 241.40
  A 1.03 1.03 0.0 0 0 129.67 240.37
  L 123.83 240.37
  A 1.03 1.03 0.0 0 0 122.80 241.40
  L 122.80 242.32
  A 1.03 1.03 0.0 0 0 123.83 243.35
  L 129.67 243.35
  A 1.03 1.03 0.0 0 0 130.70 242.32
  L 130.70 241.40"
/>
<path stroke="#785f00" vector-effect="non-scaling-stroke" d="
  M 193.44 292.69
  Q 192.18 320.46 191.28 348.26
  C 190.74 365.15 191.40 382.07 191.76 399.07
  Q 191.78 400.18 192.09 401.24
  Q 192.59 402.92 193.25 402.24
  A 0.84 0.82 -24.3 0 0 193.47 401.68
  Q 193.42 395.55 192.51 379.00
  C 191.06 352.76 193.48 320.87 194.55 292.01
  A 0.52 0.51 -75.1 0 0 194.28 291.54
  Q 193.51 291.13 193.44 292.69"
/>
<path stroke="#e78a13" vector-effect="non-scaling-stroke" d="
  M 215.69 339.81
  C 221.24 344.35 228.26 340.15 230.26 334.25
  Q 233.27 325.40 232.99 316.15
  A 1.01 1.00 -2.0 0 0 231.94 315.18
  L 210.80 316.18
  A 1.01 1.00 -0.6 0 0 209.85 317.15
  Q 209.68 321.99 210.23 326.66
  C 210.89 332.20 211.66 336.52 215.69 339.81"
/>
</g>
<path fill="#bddbff" d="
  M 358.04 274.50
  Q 352.40 256.27 338.75 243.04
  L 340.75 241.24
  A 0.99 0.99 0.0 0 1 341.24 241.00
  Q 347.52 239.90 350.19 235.44
  C 351.77 232.81 348.95 226.87 345.46 227.75
  Q 336.36 224.28 327.60 224.68
  A 1.02 1.02 0.0 0 1 326.73 224.25
  C 323.90 220.13 318.78 210.61 313.48 210.23
  Q 306.64 209.74 300.80 214.19
  Q 286.43 203.50 276.10 188.87
  C 259.95 165.98 246.50 142.06 216.24 136.51
  C 188.88 131.48 159.85 141.14 143.25 164.26
  Q 132.05 179.85 123.65 197.96
  Q 109.93 189.74 96.33 183.65
  C 66.06 170.11 33.25 158.46 1.31 145.50
  A 1.01 1.00 9.5 0 1 0.69 144.64
  C 0.00 135.16 0.36 125.03 0.46 115.67
  Q 0.84 81.90 1.46 48.13
  C 1.73 33.92 1.73 25.65 8.26 15.25
  C 14.91 4.64 28.20 2.85 39.81 2.79
  C 136.29 2.28 232.90 1.59 329.37 2.62
  Q 339.64 2.73 344.45 4.24
  C 358.97 8.83 366.55 23.15 366.51 37.91
  Q 366.33 105.67 367.14 173.44
  C 367.57 209.72 368.42 239.74 366.48 270.25
  C 366.39 271.73 365.57 273.16 365.66 275.06
  Q 365.81 278.03 365.41 281.02
  A 0.27 0.27 0.0 0 1 365.17 281.25
  Q 364.90 281.26 364.81 280.94
  Q 363.49 276.43 360.44 273.54
  A 1.03 1.00 -23.5 0 0 359.72 273.27
  Q 358.57 273.30 358.04 274.50
  Z"
/>
<path fill="#005cd5" d="
  M 300.80 214.19
  Q 296.07 219.54 296.06 225.41
  A 1.01 1.00 14.4 0 1 294.57 226.29
  C 286.63 221.87 281.66 227.49 277.73 233.61
  A 1.01 1.00 15.7 0 1 276.90 234.07
  C 272.77 234.13 266.28 234.01 262.64 236.43
  C 259.02 238.84 259.53 242.34 263.86 243.64
  C 279.84 248.45 295.82 247.64 311.94 246.67
  Q 319.62 246.20 333.85 242.93
  Q 335.39 243.32 337.23 242.61
  A 0.99 0.97 48.5 0 1 338.07 242.67
  L 338.75 243.04
  Q 352.40 256.27 358.04 274.50
  C 360.29 286.46 362.61 297.21 360.74 309.49
  Q 360.61 310.33 361.04 311.00
  Q 360.14 311.89 360.00 312.75
  Q 356.38 335.17 341.50 352.21
  L 338.55 352.88
  Q 343.20 341.28 343.92 328.98
  Q 344.16 324.87 342.99 322.67
  C 336.97 311.42 318.16 345.26 315.51 349.52
  C 315.28 349.88 314.69 349.95 314.83 349.31
  C 316.00 343.81 320.83 312.34 315.25 310.11
  Q 312.22 308.91 310.83 311.86
  C 304.81 324.65 303.05 340.75 301.69 354.69
  Q 301.61 355.47 300.89 355.30
  A 0.66 0.66 0.0 0 1 300.46 354.94
  C 297.84 349.27 293.03 339.16 286.65 337.09
  A 1.01 1.00 -71.1 0 0 285.40 337.71
  C 283.08 344.29 287.55 358.11 290.10 364.54
  A 1.00 0.99 71.2 0 1 289.45 365.87
  L 280.62 368.37
  A 1.00 1.00 0.0 0 0 279.91 369.52
  Q 281.72 379.01 288.29 384.27
  Q 278.52 388.42 268.49 391.50
  Q 268.08 387.31 269.21 383.37
  Q 270.17 380.02 270.29 378.01
  Q 271.27 361.45 273.67 345.01
  Q 272.52 317.89 262.95 295.04
  Q 252.79 270.80 226.23 268.53
  Q 220.66 266.65 215.50 266.29
  Q 215.21 266.34 215.02 266.25
  A 0.41 0.41 0.0 0 1 214.78 265.85
  L 215.57 255.89
  Q 223.37 253.72 226.89 247.89
  Q 229.05 244.31 229.03 238.45
  A 1.01 1.00 -7.5 0 1 229.78 237.48
  L 231.38 237.06
  Q 242.38 236.56 250.72 230.01
  A 1.01 0.97 76.3 0 0 251.09 229.37
  C 252.63 219.16 243.69 212.28 234.78 210.19
  Q 233.05 209.79 230.95 207.65
  Q 229.54 197.50 224.45 191.29
  C 215.76 180.70 191.40 177.01 179.48 184.02
  C 172.39 188.19 169.91 194.67 166.00 201.46
  C 158.95 202.00 138.94 206.00 139.47 216.17
  C 139.94 225.30 156.38 228.64 163.19 230.16
  C 165.79 230.74 167.40 231.95 167.02 234.75
  Q 166.17 241.08 168.29 246.55
  Q 169.62 254.26 177.19 257.31
  Q 181.43 259.01 185.04 259.04
  A 1.01 1.00 88.1 0 1 186.03 259.97
  Q 186.34 264.11 185.47 268.02
  L 177.47 268.58
  Q 159.37 268.41 151.30 284.80
  Q 141.52 304.66 135.80 321.02
  C 134.77 323.97 135.25 326.81 134.32 329.56
  Q 133.67 331.50 133.05 333.40
  Q 132.19 336.07 131.52 333.35
  Q 126.11 311.58 122.00 289.54
  L 143.76 289.57
  Q 146.42 289.57 146.44 286.44
  Q 146.57 263.37 146.55 240.31
  Q 146.54 235.46 142.25 235.49
  Q 128.22 235.60 125.57 235.36
  C 121.03 234.95 118.97 237.30 119.14 241.78
  Q 119.66 255.33 119.37 269.04
  Q 114.87 278.31 113.36 285.07
  C 111.47 293.48 110.18 305.24 110.77 314.36
  C 111.42 324.50 113.12 336.58 117.49 345.86
  C 122.82 357.17 131.69 365.44 142.99 353.74
  C 149.23 347.27 153.28 338.69 156.88 329.76
  L 162.31 298.48
  A 1.02 0.98 82.5 0 1 162.84 297.76
  Q 163.75 297.30 163.51 298.75
  Q 161.38 311.42 159.24 324.09
  C 158.62 327.81 156.81 331.74 156.27 335.50
  Q 154.41 348.37 153.46 363.65
  Q 153.46 363.74 152.08 380.30
  Q 151.24 390.50 151.89 400.69
  L 140.25 398.71
  Q 141.46 397.13 143.09 395.98
  C 149.20 391.66 146.40 385.85 139.76 385.47
  Q 131.24 384.97 123.16 387.76
  Q 121.16 388.45 122.20 386.61
  Q 124.08 383.31 125.71 379.86
  C 127.99 375.02 129.34 372.44 130.00 368.23
  Q 130.38 365.82 127.95 365.61
  Q 122.75 365.16 117.29 367.13
  Q 108.72 370.22 100.26 373.64
  Q 98.34 374.42 99.23 372.56
  Q 101.35 368.13 102.54 363.38
  C 103.36 360.09 104.24 357.07 103.55 354.74
  C 99.53 341.01 87.22 365.38 85.88 368.41
  Q 85.79 368.62 85.68 368.75
  Q 84.64 370.02 84.78 368.38
  C 85.42 360.75 88.19 325.58 79.27 320.79
  C 72.67 317.25 68.20 331.05 67.35 335.73
  Q 65.12 347.90 65.53 360.27
  Q 65.67 364.66 63.64 360.77
  Q 59.69 353.20 54.44 345.35
  C 52.57 342.55 46.37 337.05 48.28 346.99
  Q 49.95 355.61 56.58 367.76
  A 1.00 0.99 66.3 0 1 56.03 369.18
  L 55.00 369.54
  Q 34.46 352.61 31.44 326.56
  Q 28.85 304.23 39.25 282.23
  Q 68.82 281.00 95.32 268.27
  C 99.69 266.17 113.59 257.92 105.18 252.23
  Q 103.54 251.11 101.74 250.80
  Q 94.75 249.60 87.65 250.19
  A 1.00 0.99 79.8 0 1 86.61 249.46
  Q 85.72 246.28 83.50 243.21
  Q 103.04 230.70 115.70 213.69
  Q 120.35 207.45 123.65 197.96
  Q 132.05 179.85 143.25 164.26
  C 159.85 141.14 188.88 131.48 216.24 136.51
  C 246.50 142.06 259.95 165.98 276.10 188.87
  Q 286.43 203.50 300.80 214.19
  Z"
/>
<path fill="#efbe00" d="
  M 230.95 207.65
  Q 229.44 207.38 227.90 206.89
  C 209.03 200.80 185.64 199.77 166.00 201.46
  C 169.91 194.67 172.39 188.19 179.48 184.02
  C 191.40 177.01 215.76 180.70 224.45 191.29
  Q 229.54 197.50 230.95 207.65
  Z"
/>
<path fill="#de5525" d="
  M 230.95 207.65
  Q 233.05 209.79 234.78 210.19
  C 243.69 212.28 252.63 219.16 251.09 229.37
  A 1.01 0.97 76.3 0 1 250.72 230.01
  Q 242.38 236.56 231.38 237.06
  Q 229.72 234.23 230.22 230.74
  Q 238.65 231.37 245.44 228.13
  A 1.01 1.00 73.9 0 0 246.00 227.11
  C 245.10 219.52 236.58 216.58 230.50 214.21
  Q 222.64 210.71 212.55 209.45
  Q 197.23 207.54 187.65 207.07
  Q 178.83 206.20 169.97 207.17
  C 161.69 207.49 150.50 208.34 145.37 216.00
  A 0.99 0.99 0.0 0 0 145.32 217.03
  C 148.44 222.76 162.56 224.99 168.46 225.50
  L 168.29 246.55
  Q 166.17 241.08 167.02 234.75
  C 167.40 231.95 165.79 230.74 163.19 230.16
  C 156.38 228.64 139.94 225.30 139.47 216.17
  C 138.94 206.00 158.95 202.00 166.00 201.46
  C 185.64 199.77 209.03 200.80 227.90 206.89
  Q 229.44 207.38 230.95 207.65
  Z"
/>
<path fill="#fdc19d" d="
  M 187.65 207.07
  Q 196.63 218.28 208.21 226.19
  A 0.99 0.99 0.0 0 0 209.59 225.93
  Q 212.01 222.44 215.72 223.47
  C 225.33 226.13 216.69 234.56 216.47 239.38
  Q 216.09 247.52 215.57 255.89
  L 214.78 265.85
  A 0.41 0.41 0.0 0 0 215.02 266.25
  Q 215.21 266.34 215.50 266.29
  L 214.47 266.81
  Q 214.30 266.90 214.18 267.04
  Q 206.25 275.87 196.63 282.78
  A 1.01 1.00 43.1 0 1 195.50 282.81
  C 191.05 279.95 187.18 271.95 185.47 268.02
  Q 186.34 264.11 186.03 259.97
  A 1.01 1.00 88.1 0 0 185.04 259.04
  Q 181.43 259.01 177.19 257.31
  Q 169.62 254.26 168.29 246.55
  L 168.46 225.50
  L 169.97 207.17
  Q 178.83 206.20 187.65 207.07
  Z"
/>
<path fill="#9e5f3e" d="
  M 230.50 214.21
  L 230.22 230.74
  Q 229.72 234.23 231.38 237.06
  L 229.78 237.48
  A 1.01 1.00 -7.5 0 0 229.03 238.45
  Q 229.05 244.31 226.89 247.89
  Q 223.37 253.72 215.57 255.89
  Q 216.09 247.52 216.47 239.38
  C 216.69 234.56 225.33 226.13 215.72 223.47
  Q 212.01 222.44 209.59 225.93
  A 0.99 0.99 0.0 0 1 208.21 226.19
  Q 196.63 218.28 187.65 207.07
  Q 197.23 207.54 212.55 209.45
  Q 222.64 210.71 230.50 214.21
  Z"
/>
<path fill="#000000" d="
  M 169.97 207.17
  L 168.46 225.50
  C 162.56 224.99 148.44 222.76 145.32 217.03
  A 0.99 0.99 0.0 0 1 145.37 216.00
  C 150.50 208.34 161.69 207.49 169.97 207.17
  Z"
/>
<path fill="#000000" d="
  M 230.50 214.21
  C 236.58 216.58 245.10 219.52 246.00 227.11
  A 1.01 1.00 73.9 0 1 245.44 228.13
  Q 238.65 231.37 230.22 230.74
  L 230.50 214.21
  Z"
/>
<path fill="#ffffff" d="
  M 338.75 243.04
  L 338.07 242.67
  A 0.99 0.97 48.5 0 0 337.23 242.61
  Q 335.39 243.32 333.85 242.93
  Q 341.23 237.61 344.49 233.48
  Q 346.03 231.52 345.46 227.75
  C 348.95 226.87 351.77 232.81 350.19 235.44
  Q 347.52 239.90 341.24 241.00
  A 0.99 0.99 0.0 0 0 340.75 241.24
  L 338.75 243.04
  Z"
/>
<path fill="#ffffff" d="
  M 122.00 289.54
  Q 120.73 287.22 122.10 285.02
  A 1.06 1.04 3.0 0 1 122.53 284.64
  C 126.64 282.77 135.30 280.10 138.03 276.73
  A 1.00 1.00 0.0 0 0 137.68 275.20
  Q 129.74 271.42 121.01 272.42
  A 1.01 1.01 0.0 0 1 119.89 271.41
  Q 119.91 270.06 119.37 269.04
  Q 119.66 255.33 119.14 241.78
  C 118.97 237.30 121.03 234.95 125.57 235.36
  Q 128.22 235.60 142.25 235.49
  Q 146.54 235.46 146.55 240.31
  Q 146.57 263.37 146.44 286.44
  Q 146.42 289.57 143.76 289.57
  L 122.00 289.54
  Z
  M 132.1071 241.3070
  A 2.46 2.46 0.0 0 0 129.6730 238.8214
  L 123.7134 238.7590
  A 2.46 2.46 0.0 0 0 121.2277 241.1931
  L 121.2129 242.6130
  A 2.46 2.46 0.0 0 0 123.6470 245.0986
  L 129.6066 245.1610
  A 2.46 2.46 0.0 0 0 132.0923 242.7269
  L 132.1071 241.3070
  Z"
/>
<path fill="#bddbff" d="
  M 83.50 243.21
  Q 85.72 246.28 86.61 249.46
  A 1.00 0.99 79.8 0 0 87.65 250.19
  Q 94.75 249.60 101.74 250.80
  Q 103.54 251.11 105.18 252.23
  C 113.59 257.92 99.69 266.17 95.32 268.27
  Q 68.82 281.00 39.25 282.23
  Q 39.06 281.50 37.81 280.92
  Q 37.09 280.59 35.98 280.52
  C 29.86 280.15 15.32 279.68 10.59 275.85
  A 1.00 1.00 0.0 0 1 10.53 274.35
  C 14.36 270.67 22.23 269.23 27.38 268.32
  A 1.01 0.99 -89.5 0 0 28.18 267.52
  L 29.27 261.75
  Q 29.86 258.63 32.32 257.83
  Q 36.95 256.32 41.07 258.97
  Q 44.31 261.07 44.04 257.27
  C 43.53 250.00 44.23 236.71 55.26 237.81
  C 62.08 238.48 65.37 244.31 68.61 249.58
  A 1.00 1.00 0.0 0 0 70.22 249.71
  C 74.23 245.06 76.83 242.45 83.50 243.21
  Z"
/>
<path fill="#000000" d="
  M 132.0923 242.7269
  A 2.46 2.46 0.0 0 1 129.6066 245.1610
  L 123.6470 245.0986
  A 2.46 2.46 0.0 0 1 121.2129 242.6130
  L 121.2277 241.1931
  A 2.46 2.46 0.0 0 1 123.7134 238.7590
  L 129.6730 238.8214
  A 2.46 2.46 0.0 0 1 132.1071 241.3070
  L 132.0923 242.7269
  Z
  M 130.70 241.40
  A 1.03 1.03 0.0 0 0 129.67 240.37
  L 123.83 240.37
  A 1.03 1.03 0.0 0 0 122.80 241.40
  L 122.80 242.32
  A 1.03 1.03 0.0 0 0 123.83 243.35
  L 129.67 243.35
  A 1.03 1.03 0.0 0 0 130.70 242.32
  L 130.70 241.40
  Z"
/>
<rect fill="#ffffff" x="122.80" y="240.37" width="7.90" height="2.98" rx="1.03"/>
<path fill="#ffffff" d="
  M 215.50 266.29
  Q 220.66 266.65 226.23 268.53
  Q 216.35 279.36 203.16 285.77
  C 200.43 287.10 197.45 289.23 193.63 289.79
  A 1.00 0.99 -32.7 0 1 192.93 289.64
  C 188.50 286.69 175.24 275.86 175.71 270.25
  L 177.47 268.58
  L 185.47 268.02
  C 187.18 271.95 191.05 279.95 195.50 282.81
  A 1.01 1.00 43.1 0 0 196.63 282.78
  Q 206.25 275.87 214.18 267.04
  Q 214.30 266.90 214.47 266.81
  L 215.50 266.29
  Z"
/>
<path fill="#efbe00" d="
  M 226.23 268.53
  Q 252.79 270.80 262.95 295.04
  Q 272.52 317.89 273.67 345.01
  L 250.25 345.71
  Q 245.21 324.02 240.51 302.25
  Q 240.36 301.52 239.72 301.47
  A 0.51 0.51 0.0 0 0 239.18 302.09
  L 248.75 345.71
  Q 247.15 345.77 247.44 347.76
  Q 250.20 366.51 252.31 378.45
  C 253.14 383.14 255.29 391.74 256.07 398.68
  C 248.97 401.59 242.79 401.68 235.31 402.30
  C 209.57 404.44 184.19 405.22 157.81 403.40
  Q 153.94 403.13 151.89 400.69
  Q 151.24 390.50 152.08 380.30
  Q 153.46 363.74 153.46 363.65
  Q 154.41 348.37 156.27 335.50
  C 156.81 331.74 158.62 327.81 159.24 324.09
  Q 161.38 311.42 163.51 298.75
  Q 163.75 297.30 162.84 297.76
  A 1.02 0.98 82.5 0 0 162.31 298.48
  L 156.88 329.76
  Q 147.47 328.06 138.52 324.81
  A 1.03 0.96 -38.7 0 0 138.00 324.77
  Q 135.67 325.19 136.61 323.09
  C 139.58 316.46 142.13 309.92 144.61 304.34
  Q 146.67 299.70 148.46 294.95
  Q 149.63 291.84 157.28 279.46
  Q 159.39 276.04 163.58 273.86
  C 165.49 272.87 174.96 268.33 175.71 270.25
  C 175.24 275.86 188.50 286.69 192.93 289.64
  A 1.00 0.99 -32.7 0 0 193.63 289.79
  C 197.45 289.23 200.43 287.10 203.16 285.77
  Q 216.35 279.36 226.23 268.53
  Z
  M 193.44 292.69
  Q 192.18 320.46 191.28 348.26
  C 190.74 365.15 191.40 382.07 191.76 399.07
  Q 191.78 400.18 192.09 401.24
  Q 192.59 402.92 193.25 402.24
  A 0.84 0.82 -24.3 0 0 193.47 401.68
  Q 193.42 395.55 192.51 379.00
  C 191.06 352.76 193.48 320.87 194.55 292.01
  A 0.52 0.51 -75.1 0 0 194.28 291.54
  Q 193.51 291.13 193.44 292.69
  Z
  M 215.69 339.81
  C 221.24 344.35 228.26 340.15 230.26 334.25
  Q 233.27 325.40 232.99 316.15
  A 1.01 1.00 -2.0 0 0 231.94 315.18
  L 210.80 316.18
  A 1.01 1.00 -0.6 0 0 209.85 317.15
  Q 209.68 321.99 210.23 326.66
  C 210.89 332.20 211.66 336.52 215.69 339.81
  Z"
/>
<path fill="#fdc19d" d="
  M 177.47 268.58
  L 175.71 270.25
  C 174.96 268.33 165.49 272.87 163.58 273.86
  Q 159.39 276.04 157.28 279.46
  Q 149.63 291.84 148.46 294.95
  Q 146.67 299.70 144.61 304.34
  C 142.13 309.92 139.58 316.46 136.61 323.09
  Q 135.67 325.19 138.00 324.77
  A 1.03 0.96 -38.7 0 1 138.52 324.81
  Q 147.47 328.06 156.88 329.76
  C 153.28 338.69 149.23 347.27 142.99 353.74
  C 131.69 365.44 122.82 357.17 117.49 345.86
  C 113.12 336.58 111.42 324.50 110.77 314.36
  C 110.18 305.24 111.47 293.48 113.36 285.07
  Q 114.87 278.31 119.37 269.04
  Q 119.91 270.06 119.89 271.41
  A 1.01 1.01 0.0 0 0 121.01 272.42
  Q 129.74 271.42 137.68 275.20
  A 1.00 1.00 0.0 0 1 138.03 276.73
  C 135.30 280.10 126.64 282.77 122.53 284.64
  A 1.06 1.04 3.0 0 0 122.10 285.02
  Q 120.73 287.22 122.00 289.54
  Q 126.11 311.58 131.52 333.35
  Q 132.19 336.07 133.05 333.40
  Q 133.67 331.50 134.32 329.56
  C 135.25 326.81 134.77 323.97 135.80 321.02
  Q 141.52 304.66 151.30 284.80
  Q 159.37 268.41 177.47 268.58
  Z"
/>
<path fill="#000000" d="
  M 193.44 292.69
  Q 193.51 291.13 194.28 291.54
  A 0.52 0.51 -75.1 0 1 194.55 292.01
  C 193.48 320.87 191.06 352.76 192.51 379.00
  Q 193.42 395.55 193.47 401.68
  A 0.84 0.82 -24.3 0 1 193.25 402.24
  Q 192.59 402.92 192.09 401.24
  Q 191.78 400.18 191.76 399.07
  C 191.40 382.07 190.74 365.15 191.28 348.26
  Q 192.18 320.46 193.44 292.69
  Z"
/>
<path fill="#000000" d="
  M 250.25 345.71
  L 248.75 345.71
  L 239.18 302.09
  A 0.51 0.51 0.0 0 1 239.72 301.47
  Q 240.36 301.52 240.51 302.25
  Q 245.21 324.02 250.25 345.71
  Z"
/>
<path fill="#298940" d="
  M 338.55 352.88
  Q 332.86 362.99 328.01 369.75
  C 319.94 381.01 301.15 385.07 288.29 384.27
  Q 281.72 379.01 279.91 369.52
  A 1.00 1.00 0.0 0 1 280.62 368.37
  L 289.45 365.87
  A 1.00 0.99 71.2 0 0 290.10 364.54
  C 287.55 358.11 283.08 344.29 285.40 337.71
  A 1.01 1.00 -71.1 0 1 286.65 337.09
  C 293.03 339.16 297.84 349.27 300.46 354.94
  A 0.66 0.66 0.0 0 0 300.89 355.30
  Q 301.61 355.47 301.69 354.69
  C 303.05 340.75 304.81 324.65 310.83 311.86
  Q 312.22 308.91 315.25 310.11
  C 320.83 312.34 316.00 343.81 314.83 349.31
  C 314.69 349.95 315.28 349.88 315.51 349.52
  C 318.16 345.26 336.97 311.42 342.99 322.67
  Q 344.16 324.87 343.92 328.98
  Q 343.20 341.28 338.55 352.88
  Z"
/>
<path fill="#bddbff" d="
  M 341.50 352.21
  Q 356.38 335.17 360.00 312.75
  Q 360.14 311.89 361.04 311.00
  C 367.79 308.44 366.66 317.09 366.73 320.56
  Q 367.01 336.39 366.24 351.92
  Q 366.09 354.99 363.02 355.27
  Q 351.87 356.29 341.50 352.21
  Z"
/>
<path fill="#de5525" d="
  M 215.69 339.81
  C 211.66 336.52 210.89 332.20 210.23 326.66
  Q 209.68 321.99 209.85 317.15
  A 1.01 1.00 -0.6 0 1 210.80 316.18
  L 231.94 315.18
  A 1.01 1.00 -2.0 0 1 232.99 316.15
  Q 233.27 325.40 230.26 334.25
  C 228.26 340.15 221.24 344.35 215.69 339.81
  Z"
/>
<path fill="#298940" d="
  M 140.25 398.71
  Q 134.08 398.57 131.74 399.02
  C 99.94 405.02 68.96 395.23 45.57 373.18
  Q 44.96 372.60 45.39 371.99
  A 0.81 0.80 -68.8 0 1 46.15 371.65
  C 47.74 371.86 55.95 373.99 56.66 373.66
  C 58.48 372.79 55.67 370.26 55.00 369.54
  L 56.03 369.18
  A 1.00 0.99 66.3 0 0 56.58 367.76
  Q 49.95 355.61 48.28 346.99
  C 46.37 337.05 52.57 342.55 54.44 345.35
  Q 59.69 353.20 63.64 360.77
  Q 65.67 364.66 65.53 360.27
  Q 65.12 347.90 67.35 335.73
  C 68.20 331.05 72.67 317.25 79.27 320.79
  C 88.19 325.58 85.42 360.75 84.78 368.38
  Q 84.64 370.02 85.68 368.75
  Q 85.79 368.62 85.88 368.41
  C 87.22 365.38 99.53 341.01 103.55 354.74
  C 104.24 357.07 103.36 360.09 102.54 363.38
  Q 101.35 368.13 99.23 372.56
  Q 98.34 374.42 100.26 373.64
  Q 108.72 370.22 117.29 367.13
  Q 122.75 365.16 127.95 365.61
  Q 130.38 365.82 130.00 368.23
  C 129.34 372.44 127.99 375.02 125.71 379.86
  Q 124.08 383.31 122.20 386.61
  Q 121.16 388.45 123.16 387.76
  Q 131.24 384.97 139.76 385.47
  C 146.40 385.85 149.20 391.66 143.09 395.98
  Q 141.46 397.13 140.25 398.71
  Z"
/>
<path fill="#fdc19d" d="
  M 273.67 345.01
  Q 271.27 361.45 270.29 378.01
  Q 270.17 380.02 269.21 383.37
  Q 268.08 387.31 268.49 391.50
  C 264.69 395.83 260.31 395.45 256.07 398.68
  C 255.29 391.74 253.14 383.14 252.31 378.45
  Q 250.20 366.51 247.44 347.76
  Q 247.15 345.77 248.75 345.71
  L 250.25 345.71
  L 273.67 345.01
  Z"
/>
</svg>
